<svg width="129" height="123" viewBox="0 0 129 123" fill="none" xmlns="http://www.w3.org/2000/svg">
<rect x="31" width="67" height="67" rx="17" fill="#F5EEEF"/>
<path d="M47.9369 44C47.7389 44 47.5629 43.934 47.4089 43.802C47.2769 43.648 47.2109 43.472 47.2109 43.274C47.2109 43.186 47.2219 43.109 47.2439 43.043L54.6029 21.989C54.6909 21.703 54.8559 21.45 55.0979 21.23C55.3399 21.01 55.6699 20.9 56.0879 20.9H63.2489C63.6669 20.9 63.9969 21.01 64.2389 21.23C64.4809 21.45 64.6459 21.703 64.7339 21.989L72.0929 43.043C72.1149 43.109 72.1259 43.186 72.1259 43.274C72.1259 43.472 72.0489 43.648 71.8949 43.802C71.7629 43.934 71.5979 44 71.3999 44H65.2949C64.6349 44 64.2059 43.725 64.0079 43.175L63.2159 40.997H56.1209L55.3289 43.175C55.1309 43.725 54.7019 44 54.0419 44H47.9369ZM57.8039 34.562H61.5329L59.6519 28.424L57.8039 34.562ZM74.6631 25.025C74.4211 25.025 74.2121 24.937 74.0361 24.761C73.8601 24.585 73.7721 24.376 73.7721 24.134V20.141C73.7721 19.899 73.8601 19.69 74.0361 19.514C74.2121 19.338 74.4211 19.25 74.6631 19.25H80.2401C80.4821 19.25 80.6911 19.338 80.8671 19.514C81.0431 19.69 81.1311 19.899 81.1311 20.141V24.134C81.1311 24.376 81.0431 24.585 80.8671 24.761C80.6911 24.937 80.4821 25.025 80.2401 25.025H74.6631ZM74.4981 44C74.2561 44 74.0471 43.912 73.8711 43.736C73.6951 43.56 73.6071 43.351 73.6071 43.109V27.731C73.6071 27.489 73.6951 27.28 73.8711 27.104C74.0471 26.928 74.2561 26.84 74.4981 26.84H80.4051C80.6471 26.84 80.8561 26.928 81.0321 27.104C81.2081 27.28 81.2961 27.489 81.2961 27.731V43.109C81.2961 43.351 81.2081 43.56 81.0321 43.736C80.8561 43.912 80.6471 44 80.4051 44H74.4981Z" fill="#22AF8B"/>
<path d="M32.4497 98.23C31.591 98.23 30.8167 98.069 30.1267 97.747C29.452 97.425 28.923 96.988 28.5397 96.436C28.1717 95.884 27.9877 95.263 27.9877 94.573C27.9877 92.503 29.6667 91.1767 33.0247 90.594L35.4627 90.203V90.18C35.4627 89.7353 35.4243 89.4363 35.3477 89.283C35.271 89.1143 35.0793 89.03 34.7727 89.03C34.604 89.03 34.4583 89.0607 34.3357 89.122C34.213 89.1833 34.0827 89.2753 33.9447 89.398C33.8067 89.5207 33.684 89.6127 33.5767 89.674C33.4847 89.7353 33.3543 89.766 33.1857 89.766H33.1167H29.2757C29.1377 89.766 29.015 89.7277 28.9077 89.651C28.8157 89.559 28.7697 89.444 28.7697 89.306C28.7697 88.8613 28.9843 88.363 29.4137 87.811C29.8583 87.259 30.533 86.7913 31.4377 86.408C32.3577 86.0093 33.4847 85.81 34.8187 85.81C36.8733 85.81 38.4143 86.2393 39.4417 87.098C40.469 87.9567 40.9827 89.1833 40.9827 90.778V97.379C40.9827 97.5477 40.9213 97.6933 40.7987 97.816C40.676 97.9387 40.5303 98 40.3617 98H36.3367C36.168 98 36.0223 97.9387 35.8997 97.816C35.777 97.6933 35.7157 97.5477 35.7157 97.379V96.735C35.3783 97.195 34.926 97.563 34.3587 97.839C33.7913 98.0997 33.155 98.23 32.4497 98.23ZM34.0367 94.826C34.4967 94.826 34.857 94.6803 35.1177 94.389C35.3937 94.0977 35.5317 93.653 35.5317 93.055V93.032L34.1747 93.331C33.5 93.4843 33.1627 93.768 33.1627 94.182C33.1627 94.366 33.2393 94.5193 33.3927 94.642C33.546 94.7647 33.7607 94.826 34.0367 94.826ZM47.5163 98.23C46.0903 98.23 44.9403 97.8007 44.0663 96.942C43.1923 96.0833 42.717 94.7417 42.6403 92.917L42.6173 91.997L42.6403 91.1C42.7016 89.3673 43.177 88.0563 44.0663 87.167C44.971 86.2623 46.121 85.81 47.5163 85.81C48.7583 85.81 49.778 86.1703 50.5753 86.891V82.291C50.5753 82.1223 50.6366 81.9767 50.7593 81.854C50.882 81.7313 51.0276 81.67 51.1963 81.67H55.4513C55.62 81.67 55.7656 81.7313 55.8883 81.854C56.011 81.9767 56.0723 82.1223 56.0723 82.291V97.379C56.0723 97.5477 56.011 97.6933 55.8883 97.816C55.7656 97.9387 55.62 98 55.4513 98H51.5413C51.3726 98 51.227 97.9387 51.1043 97.816C50.9816 97.6933 50.9203 97.5477 50.9203 97.379V96.85C50.1076 97.77 48.973 98.23 47.5163 98.23ZM49.4253 94.113C49.824 94.113 50.1076 94.0057 50.2763 93.791C50.445 93.561 50.5446 93.2237 50.5753 92.779C50.606 92.319 50.6213 92.0353 50.6213 91.928C50.6213 91.8207 50.606 91.537 50.5753 91.077C50.5446 90.6937 50.4373 90.41 50.2533 90.226C50.0846 90.0267 49.8086 89.927 49.4253 89.927C49.0266 89.927 48.743 90.0343 48.5743 90.249C48.421 90.4637 48.3213 90.801 48.2753 91.261C48.26 91.4143 48.2523 91.6673 48.2523 92.02C48.2523 92.3727 48.26 92.6257 48.2753 92.779C48.3213 93.239 48.421 93.5763 48.5743 93.791C48.743 94.0057 49.0266 94.113 49.4253 94.113ZM64.4934 98.23C60.2767 98.23 58.0534 96.5203 57.8234 93.101C57.808 92.871 57.8004 92.5107 57.8004 92.02C57.8004 91.5293 57.808 91.169 57.8234 90.939C57.9307 89.2677 58.567 87.995 59.7324 87.121C60.8977 86.247 62.4847 85.81 64.4934 85.81C66.502 85.81 68.089 86.247 69.2544 87.121C70.4197 87.995 71.056 89.2677 71.1634 90.939C71.194 91.399 71.2094 91.7593 71.2094 92.02C71.2094 92.2807 71.194 92.641 71.1634 93.101C70.9334 96.5203 68.71 98.23 64.4934 98.23ZM64.4934 94.55C64.9074 94.55 65.1757 94.4427 65.2984 94.228C65.421 93.998 65.4977 93.584 65.5284 92.986C65.5437 92.8327 65.5514 92.5107 65.5514 92.02C65.5514 91.5293 65.5437 91.2073 65.5284 91.054C65.4824 90.4713 65.398 90.065 65.2754 89.835C65.1527 89.605 64.892 89.49 64.4934 89.49C64.0947 89.49 63.834 89.605 63.7114 89.835C63.5887 90.065 63.5044 90.4713 63.4584 91.054L63.4354 92.02L63.4584 92.986C63.489 93.584 63.5657 93.998 63.6884 94.228C63.811 94.4427 64.0794 94.55 64.4934 94.55ZM81.4582 98.23C80.0015 98.23 78.8669 97.77 78.0542 96.85V97.379C78.0542 97.5477 77.9929 97.6933 77.8702 97.816C77.7475 97.9387 77.6019 98 77.4332 98H73.5232C73.3545 98 73.2089 97.9387 73.0862 97.816C72.9635 97.6933 72.9022 97.5477 72.9022 97.379V82.291C72.9022 82.1223 72.9635 81.9767 73.0862 81.854C73.2089 81.7313 73.3545 81.67 73.5232 81.67H77.7782C77.9469 81.67 78.0925 81.7313 78.2152 81.854C78.3379 81.9767 78.3992 82.1223 78.3992 82.291V86.891C79.1965 86.1703 80.2162 85.81 81.4582 85.81C82.8535 85.81 83.9959 86.2623 84.8852 87.167C85.7899 88.0563 86.2729 89.3673 86.3342 91.1C86.3495 91.33 86.3572 91.629 86.3572 91.997C86.3572 92.3803 86.3495 92.687 86.3342 92.917C86.2575 94.7417 85.7822 96.0833 84.9082 96.942C84.0342 97.8007 82.8842 98.23 81.4582 98.23ZM79.5492 94.113C79.9479 94.113 80.2239 94.0057 80.3772 93.791C80.5459 93.5763 80.6532 93.239 80.6992 92.779C80.7299 92.4723 80.7452 92.2193 80.7452 92.02C80.7452 91.8207 80.7299 91.5677 80.6992 91.261C80.6532 90.801 80.5459 90.4637 80.3772 90.249C80.2239 90.0343 79.9479 89.927 79.5492 89.927C79.1659 89.927 78.8822 90.0267 78.6982 90.226C78.5295 90.41 78.4299 90.6937 78.3992 91.077C78.3839 91.307 78.3762 91.5907 78.3762 91.928C78.3762 92.2653 78.3839 92.549 78.3992 92.779C78.4299 93.2237 78.5295 93.561 78.6982 93.791C78.8669 94.0057 79.1505 94.113 79.5492 94.113ZM94.2952 98.23C92.2099 98.23 90.5922 97.724 89.4422 96.712C88.2922 95.6847 87.7172 94.1283 87.7172 92.043V91.882C87.7479 89.9347 88.3459 88.4397 89.5112 87.397C90.6919 86.339 92.2789 85.81 94.2722 85.81C95.7136 85.81 96.9249 86.0937 97.9062 86.661C98.9029 87.213 99.6389 87.9643 100.114 88.915C100.59 89.8503 100.827 90.9007 100.827 92.066V92.756C100.827 92.9247 100.766 93.0703 100.643 93.193C100.521 93.3157 100.375 93.377 100.206 93.377H93.3522V93.492C93.3522 93.9673 93.4212 94.32 93.5592 94.55C93.6972 94.78 93.9272 94.895 94.2492 94.895C94.3719 94.895 94.4716 94.872 94.5482 94.826C94.6249 94.7647 94.7476 94.6497 94.9162 94.481C95.0542 94.343 95.1692 94.2587 95.2612 94.228C95.3532 94.182 95.4912 94.159 95.6752 94.159H100.022C100.16 94.159 100.275 94.205 100.367 94.297C100.475 94.3737 100.528 94.481 100.528 94.619C100.528 95.0483 100.291 95.5543 99.8152 96.137C99.3399 96.7043 98.6269 97.195 97.6762 97.609C96.7409 98.023 95.6139 98.23 94.2952 98.23ZM95.1922 90.502V90.479C95.1922 89.513 94.8856 89.03 94.2722 89.03C93.6589 89.03 93.3522 89.513 93.3522 90.479V90.502H95.1922ZM2.1001 106.775C1.93143 106.775 1.78577 106.714 1.6631 106.591C1.54043 106.468 1.4791 106.323 1.4791 106.154V103.371C1.4791 103.202 1.54043 103.057 1.6631 102.934C1.78577 102.811 1.93143 102.75 2.1001 102.75H5.9871C6.15577 102.75 6.30144 102.811 6.4241 102.934C6.54677 103.057 6.6081 103.202 6.6081 103.371V106.154C6.6081 106.323 6.54677 106.468 6.4241 106.591C6.30144 106.714 6.15577 106.775 5.9871 106.775H2.1001ZM1.9851 120C1.81643 120 1.67077 119.939 1.5481 119.816C1.42543 119.693 1.3641 119.548 1.3641 119.379V108.661C1.3641 108.492 1.42543 108.347 1.5481 108.224C1.67077 108.101 1.81643 108.04 1.9851 108.04H6.1021C6.27077 108.04 6.41644 108.101 6.5391 108.224C6.66177 108.347 6.7231 108.492 6.7231 108.661V119.379C6.7231 119.548 6.66177 119.693 6.5391 119.816C6.41644 119.939 6.27077 120 6.1021 120H1.9851ZM9.41967 120C9.25101 120 9.10534 119.939 8.98267 119.816C8.86001 119.693 8.79867 119.548 8.79867 119.379V104.291C8.79867 104.122 8.86001 103.977 8.98267 103.854C9.10534 103.731 9.25101 103.67 9.41967 103.67H13.5367C13.7053 103.67 13.851 103.731 13.9737 103.854C14.0963 103.977 14.1577 104.122 14.1577 104.291V119.379C14.1577 119.548 14.0963 119.693 13.9737 119.816C13.851 119.939 13.7053 120 13.5367 120H9.41967ZM16.8542 120C16.6856 120 16.5399 119.939 16.4172 119.816C16.2946 119.693 16.2332 119.548 16.2332 119.379V104.291C16.2332 104.122 16.2946 103.977 16.4172 103.854C16.5399 103.731 16.6856 103.67 16.8542 103.67H20.9712C21.1399 103.67 21.2856 103.731 21.4082 103.854C21.5309 103.977 21.5922 104.122 21.5922 104.291V119.379C21.5922 119.548 21.5309 119.693 21.4082 119.816C21.2856 119.939 21.1399 120 20.9712 120H16.8542ZM28.0148 120.23C27.2021 120.23 26.4585 120.046 25.7838 119.678C25.1091 119.295 24.5648 118.712 24.1508 117.93C23.7521 117.148 23.5528 116.174 23.5528 115.009V108.661C23.5528 108.492 23.6141 108.347 23.7368 108.224C23.8595 108.101 24.0051 108.04 24.1738 108.04H28.5668C28.7355 108.04 28.8811 108.101 29.0038 108.224C29.1265 108.347 29.1878 108.492 29.1878 108.661V114.848C29.1878 115.262 29.2875 115.576 29.4868 115.791C29.6861 116.006 29.9698 116.113 30.3378 116.113C30.7058 116.113 30.9895 116.006 31.1888 115.791C31.3881 115.576 31.4878 115.262 31.4878 114.848V108.661C31.4878 108.492 31.5491 108.347 31.6718 108.224C31.7945 108.101 31.9401 108.04 32.1088 108.04H36.4788C36.6475 108.04 36.7931 108.101 36.9158 108.224C37.0385 108.347 37.0998 108.492 37.0998 108.661V119.379C37.0998 119.548 37.0385 119.693 36.9158 119.816C36.7931 119.939 36.6475 120 36.4788 120H32.4538C32.2851 120 32.1395 119.939 32.0168 119.816C31.8941 119.693 31.8328 119.548 31.8328 119.379V118.62C31.4648 119.157 30.9511 119.563 30.2918 119.839C29.6325 120.1 28.8735 120.23 28.0148 120.23ZM44.7779 120.23C43.3979 120.23 42.2479 120.054 41.3279 119.701C40.4079 119.333 39.7255 118.888 39.2809 118.367C38.8515 117.846 38.6369 117.355 38.6369 116.895C38.6369 116.742 38.6905 116.611 38.7979 116.504C38.9052 116.381 39.0355 116.32 39.1889 116.32H43.1909H43.2829C43.4362 116.335 43.5819 116.389 43.7199 116.481C43.8579 116.558 43.9499 116.611 43.9959 116.642C44.1799 116.765 44.3409 116.857 44.4789 116.918C44.6169 116.979 44.7702 117.01 44.9389 117.01C45.0769 117.01 45.1995 116.979 45.3069 116.918C45.4142 116.857 45.4679 116.772 45.4679 116.665C45.4679 116.512 45.4219 116.381 45.3299 116.274C45.2379 116.167 45.0155 116.059 44.6629 115.952C44.3255 115.845 43.7965 115.722 43.0759 115.584C41.8492 115.354 40.8372 114.94 40.0399 114.342C39.2579 113.729 38.8669 112.862 38.8669 111.743C38.8669 111.068 39.0892 110.432 39.5339 109.834C39.9939 109.221 40.6609 108.73 41.5349 108.362C42.4242 107.994 43.4745 107.81 44.6859 107.81C45.8819 107.81 46.9399 107.994 47.8599 108.362C48.7799 108.715 49.4852 109.152 49.9759 109.673C50.4665 110.194 50.7119 110.685 50.7119 111.145C50.7119 111.298 50.6582 111.436 50.5509 111.559C50.4435 111.666 50.3285 111.72 50.2059 111.72H46.5719H46.3419C46.2039 111.72 46.0582 111.689 45.9049 111.628C45.7669 111.551 45.6365 111.467 45.5139 111.375C45.1919 111.145 44.9082 111.03 44.6629 111.03C44.5402 111.03 44.4329 111.068 44.3409 111.145C44.2489 111.206 44.2029 111.291 44.2029 111.398C44.2029 111.551 44.2489 111.682 44.3409 111.789C44.4482 111.881 44.6782 111.981 45.0309 112.088C45.3989 112.195 45.9662 112.303 46.7329 112.41C48.2662 112.64 49.3932 113.123 50.1139 113.859C50.8499 114.58 51.2179 115.385 51.2179 116.274C51.2179 117.516 50.6582 118.49 49.5389 119.195C48.4195 119.885 46.8325 120.23 44.7779 120.23ZM60.0484 120C58.2391 120 56.8284 119.624 55.8164 118.873C54.8044 118.106 54.2984 116.834 54.2984 115.055V112.065H52.4814C52.3128 112.065 52.1671 112.004 52.0444 111.881C51.9218 111.758 51.8604 111.613 51.8604 111.444V108.661C51.8604 108.492 51.9218 108.347 52.0444 108.224C52.1671 108.101 52.3128 108.04 52.4814 108.04H54.2984V104.291C54.2984 104.122 54.3598 103.977 54.4824 103.854C54.6051 103.731 54.7508 103.67 54.9194 103.67H58.9444C59.1131 103.67 59.2588 103.731 59.3814 103.854C59.5041 103.977 59.5654 104.122 59.5654 104.291V108.04H62.4634C62.6321 108.04 62.7778 108.101 62.9004 108.224C63.0231 108.347 63.0844 108.492 63.0844 108.661V111.444C63.0844 111.613 63.0231 111.758 62.9004 111.881C62.7778 112.004 62.6321 112.065 62.4634 112.065H59.5654V114.595C59.5654 115.362 59.8951 115.745 60.5544 115.745H62.6474C62.8161 115.745 62.9618 115.806 63.0844 115.929C63.2071 116.052 63.2684 116.197 63.2684 116.366V119.379C63.2684 119.548 63.2071 119.693 63.0844 119.816C62.9618 119.939 62.8161 120 62.6474 120H60.0484ZM65.5046 120C65.336 120 65.1903 119.939 65.0676 119.816C64.945 119.693 64.8836 119.548 64.8836 119.379V108.661C64.8836 108.492 64.945 108.347 65.0676 108.224C65.1903 108.101 65.336 108.04 65.5046 108.04H69.5296C69.6983 108.04 69.844 108.101 69.9666 108.224C70.0893 108.347 70.1506 108.492 70.1506 108.661V109.466C70.6566 109.021 71.2163 108.676 71.8296 108.431C72.443 108.17 73.0793 108.04 73.7386 108.04H74.8426C75.0113 108.04 75.157 108.101 75.2796 108.224C75.4023 108.347 75.4636 108.492 75.4636 108.661V112.249C75.4636 112.418 75.4023 112.563 75.2796 112.686C75.157 112.809 75.0113 112.87 74.8426 112.87H71.8756C70.9556 112.87 70.4956 113.33 70.4956 114.25V119.379C70.4956 119.548 70.4343 119.693 70.3116 119.816C70.189 119.939 70.0433 120 69.8746 120H65.5046ZM80.4038 120.23C79.5451 120.23 78.7708 120.069 78.0808 119.747C77.4061 119.425 76.8771 118.988 76.4938 118.436C76.1258 117.884 75.9418 117.263 75.9418 116.573C75.9418 114.503 77.6208 113.177 80.9788 112.594L83.4168 112.203V112.18C83.4168 111.735 83.3784 111.436 83.3018 111.283C83.2251 111.114 83.0334 111.03 82.7268 111.03C82.5581 111.03 82.4124 111.061 82.2898 111.122C82.1671 111.183 82.0368 111.275 81.8988 111.398C81.7608 111.521 81.6381 111.613 81.5308 111.674C81.4388 111.735 81.3084 111.766 81.1398 111.766H81.0708H77.2298C77.0918 111.766 76.9691 111.728 76.8618 111.651C76.7698 111.559 76.7238 111.444 76.7238 111.306C76.7238 110.861 76.9384 110.363 77.3678 109.811C77.8124 109.259 78.4871 108.791 79.3918 108.408C80.3118 108.009 81.4388 107.81 82.7728 107.81C84.8274 107.81 86.3684 108.239 87.3958 109.098C88.4231 109.957 88.9368 111.183 88.9368 112.778V119.379C88.9368 119.548 88.8754 119.693 88.7528 119.816C88.6301 119.939 88.4844 120 88.3158 120H84.2908C84.1221 120 83.9764 119.939 83.8538 119.816C83.7311 119.693 83.6698 119.548 83.6698 119.379V118.735C83.3324 119.195 82.8801 119.563 82.3128 119.839C81.7454 120.1 81.1091 120.23 80.4038 120.23ZM81.9908 116.826C82.4508 116.826 82.8111 116.68 83.0718 116.389C83.3478 116.098 83.4858 115.653 83.4858 115.055V115.032L82.1288 115.331C81.4541 115.484 81.1168 115.768 81.1168 116.182C81.1168 116.366 81.1934 116.519 81.3468 116.642C81.5001 116.765 81.7148 116.826 81.9908 116.826ZM98.2096 120C96.4002 120 94.9896 119.624 93.9776 118.873C92.9656 118.106 92.4596 116.834 92.4596 115.055V112.065H90.6426C90.4739 112.065 90.3282 112.004 90.2056 111.881C90.0829 111.758 90.0216 111.613 90.0216 111.444V108.661C90.0216 108.492 90.0829 108.347 90.2056 108.224C90.3282 108.101 90.4739 108.04 90.6426 108.04H92.4596V104.291C92.4596 104.122 92.5209 103.977 92.6436 103.854C92.7662 103.731 92.9119 103.67 93.0806 103.67H97.1056C97.2742 103.67 97.4199 103.731 97.5426 103.854C97.6652 103.977 97.7266 104.122 97.7266 104.291V108.04H100.625C100.793 108.04 100.939 108.101 101.062 108.224C101.184 108.347 101.246 108.492 101.246 108.661V111.444C101.246 111.613 101.184 111.758 101.062 111.881C100.939 112.004 100.793 112.065 100.625 112.065H97.7266V114.595C97.7266 115.362 98.0562 115.745 98.7156 115.745H100.809C100.977 115.745 101.123 115.806 101.246 115.929C101.368 116.052 101.43 116.197 101.43 116.366V119.379C101.43 119.548 101.368 119.693 101.246 119.816C101.123 119.939 100.977 120 100.809 120H98.2096ZM109.393 120.23C105.176 120.23 102.953 118.52 102.723 115.101C102.707 114.871 102.7 114.511 102.7 114.02C102.7 113.529 102.707 113.169 102.723 112.939C102.83 111.268 103.466 109.995 104.632 109.121C105.797 108.247 107.384 107.81 109.393 107.81C111.401 107.81 112.988 108.247 114.154 109.121C115.319 109.995 115.955 111.268 116.063 112.939C116.093 113.399 116.109 113.759 116.109 114.02C116.109 114.281 116.093 114.641 116.063 115.101C115.833 118.52 113.609 120.23 109.393 120.23ZM109.393 116.55C109.807 116.55 110.075 116.443 110.198 116.228C110.32 115.998 110.397 115.584 110.428 114.986C110.443 114.833 110.451 114.511 110.451 114.02C110.451 113.529 110.443 113.207 110.428 113.054C110.382 112.471 110.297 112.065 110.175 111.835C110.052 111.605 109.791 111.49 109.393 111.49C108.994 111.49 108.733 111.605 108.611 111.835C108.488 112.065 108.404 112.471 108.358 113.054L108.335 114.02L108.358 114.986C108.388 115.584 108.465 115.998 108.588 116.228C108.71 116.443 108.979 116.55 109.393 116.55ZM118.423 120C118.254 120 118.108 119.939 117.986 119.816C117.863 119.693 117.802 119.548 117.802 119.379V108.661C117.802 108.492 117.863 108.347 117.986 108.224C118.108 108.101 118.254 108.04 118.423 108.04H122.448C122.616 108.04 122.762 108.101 122.885 108.224C123.007 108.347 123.069 108.492 123.069 108.661V109.466C123.575 109.021 124.134 108.676 124.748 108.431C125.361 108.17 125.997 108.04 126.657 108.04H127.761C127.929 108.04 128.075 108.101 128.198 108.224C128.32 108.347 128.382 108.492 128.382 108.661V112.249C128.382 112.418 128.32 112.563 128.198 112.686C128.075 112.809 127.929 112.87 127.761 112.87H124.794C123.874 112.87 123.414 113.33 123.414 114.25V119.379C123.414 119.548 123.352 119.693 123.23 119.816C123.107 119.939 122.961 120 122.793 120H118.423Z" fill="#F5EEEF"/>
</svg>
