<svg width="70" height="115" viewBox="0 0 70 115" fill="none" xmlns="http://www.w3.org/2000/svg">
<rect x="2" width="67" height="67" rx="17" fill="#F5EEEF"/>
<path d="M36 14H43C46.866 14 50 17.134 50 21C50 24.866 46.866 28 43 28H36V14Z" fill="#22AF8B"/>
<path d="M36 14H29C25.134 14 22 17.134 22 21C22 24.866 25.134 28 29 28H36V14Z" fill="#22AF8B"/>
<path d="M36 28H29C25.134 28 22 31.134 22 35C22 38.866 25.134 42 29 42H36V28Z" fill="#22AF8B"/>
<path d="M36 42H29C25.134 42 22 45.134 22 49C22 52.866 25.134 56 29 56C32.866 56 36 52.866 36 49V42Z" fill="#22AF8B"/>
<rect x="36" y="28" width="14" height="14" rx="7" fill="#22AF8B"/>
<path d="M3.53923 109C3.37057 109 3.2249 108.939 3.10223 108.816C2.97957 108.693 2.91823 108.548 2.91823 108.379V101.065H1.33123C1.16257 101.065 1.0169 101.004 0.894234 100.881C0.771568 100.758 0.710234 100.613 0.710234 100.444V97.661C0.710234 97.4923 0.771568 97.3467 0.894234 97.224C1.0169 97.1013 1.16257 97.04 1.33123 97.04H2.91823V96.649C2.91823 94.901 3.44723 93.6897 4.50523 93.015C5.56323 92.325 7.02757 91.98 8.89823 91.98H16.7642C16.9329 91.98 17.0786 92.0413 17.2012 92.164C17.3239 92.2867 17.3852 92.4323 17.3852 92.601V95.384C17.3852 95.5527 17.3239 95.6983 17.2012 95.821C17.0786 95.9437 16.9329 96.005 16.7642 96.005H9.17423C8.5149 96.005 8.18523 96.258 8.18523 96.764V97.04H16.7642C16.9329 97.04 17.0786 97.1013 17.2012 97.224C17.3239 97.3467 17.3852 97.4923 17.3852 97.661V108.379C17.3852 108.548 17.3239 108.693 17.2012 108.816C17.0786 108.939 16.9329 109 16.7642 109H12.7392C12.5706 109 12.4249 108.939 12.3022 108.816C12.1796 108.693 12.1182 108.548 12.1182 108.379V101.065H8.18523V108.379C8.18523 108.548 8.1239 108.693 8.00123 108.816C7.87857 108.939 7.7329 109 7.56423 109H3.53923ZM26.1978 114.06C24.6032 114.06 23.2922 113.799 22.2648 113.278C21.2528 112.772 20.5168 112.189 20.0568 111.53C19.5968 110.871 19.3668 110.326 19.3668 109.897C19.3668 109.744 19.4282 109.606 19.5508 109.483C19.6735 109.376 19.8192 109.322 19.9878 109.322H24.4728C24.6415 109.322 24.7718 109.36 24.8638 109.437C24.9558 109.514 25.0402 109.629 25.1168 109.782C25.2242 109.997 25.3468 110.142 25.4848 110.219C25.6228 110.311 25.8222 110.357 26.0828 110.357C26.7422 110.357 27.0718 109.905 27.0718 109V107.482C26.3205 108.141 25.3008 108.471 24.0128 108.471C22.4948 108.471 21.3295 108.072 20.5168 107.275C19.7042 106.462 19.2442 105.128 19.1368 103.273L19.1138 102.675C19.1138 100.712 19.5355 99.248 20.3788 98.282C21.2375 97.3007 22.4488 96.81 24.0128 96.81C24.7335 96.81 25.3852 96.9557 25.9678 97.247C26.5505 97.523 27.0335 97.8987 27.4168 98.374V97.661C27.4168 97.4923 27.4782 97.3467 27.6008 97.224C27.7235 97.1013 27.8692 97.04 28.0378 97.04H32.0628C32.2315 97.04 32.3772 97.1013 32.4998 97.224C32.6225 97.3467 32.6838 97.4923 32.6838 97.661L32.7068 108.609C32.7068 110.449 32.1088 111.814 30.9128 112.703C29.7168 113.608 28.1452 114.06 26.1978 114.06ZM25.9218 104.469C26.3052 104.469 26.5812 104.377 26.7498 104.193C26.9338 103.994 27.0412 103.702 27.0718 103.319C27.0872 103.242 27.0948 103.035 27.0948 102.698C27.0948 102.085 27.0105 101.64 26.8418 101.364C26.6885 101.073 26.3818 100.927 25.9218 100.927C25.5232 100.927 25.2395 101.042 25.0708 101.272C24.9022 101.487 24.8025 101.816 24.7718 102.261L24.7488 102.698C24.7488 103.296 24.8255 103.741 24.9788 104.032C25.1475 104.323 25.4618 104.469 25.9218 104.469ZM35.3982 109C35.2295 109 35.0839 108.939 34.9612 108.816C34.8385 108.693 34.7772 108.548 34.7772 108.379V97.661C34.7772 97.4923 34.8385 97.3467 34.9612 97.224C35.0839 97.1013 35.2295 97.04 35.3982 97.04H39.1932C39.3619 97.04 39.5075 97.1013 39.6302 97.224C39.7529 97.3467 39.8142 97.4923 39.8142 97.661V98.42C40.1362 97.9907 40.6039 97.615 41.2172 97.293C41.8305 96.971 42.5205 96.81 43.2872 96.81C44.9279 96.81 46.0472 97.4387 46.6452 98.696C47.0132 98.1593 47.5192 97.7147 48.1632 97.362C48.8072 96.994 49.4742 96.81 50.1642 96.81C51.4062 96.81 52.4182 97.2393 53.2002 98.098C53.9975 98.9413 54.3962 100.222 54.3962 101.939V108.379C54.3962 108.548 54.3349 108.693 54.2122 108.816C54.0895 108.939 53.9439 109 53.7752 109H49.7272C49.5585 109 49.4129 108.939 49.2902 108.816C49.1675 108.693 49.1062 108.548 49.1062 108.379V102.054C49.1062 101.686 49.0219 101.41 48.8532 101.226C48.6999 101.027 48.4775 100.927 48.1862 100.927C47.8949 100.927 47.6725 101.027 47.5192 101.226C47.3659 101.41 47.2892 101.686 47.2892 102.054V108.379C47.2892 108.548 47.2279 108.693 47.1052 108.816C46.9825 108.939 46.8369 109 46.6682 109H42.6202C42.4515 109 42.3059 108.939 42.1832 108.816C42.0605 108.693 41.9992 108.548 41.9992 108.379V102.054C41.9992 101.686 41.9149 101.41 41.7462 101.226C41.5929 101.027 41.3705 100.927 41.0792 100.927C40.7879 100.927 40.5579 101.027 40.3892 101.226C40.2359 101.425 40.1592 101.701 40.1592 102.054V108.379C40.1592 108.548 40.0979 108.693 39.9752 108.816C39.8525 108.939 39.7069 109 39.5382 109H35.3982ZM60.1801 109.23C59.3215 109.23 58.5471 109.069 57.8571 108.747C57.1825 108.425 56.6535 107.988 56.2701 107.436C55.9021 106.884 55.7181 106.263 55.7181 105.573C55.7181 103.503 57.3971 102.177 60.7551 101.594L63.1931 101.203V101.18C63.1931 100.735 63.1548 100.436 63.0781 100.283C63.0015 100.114 62.8098 100.03 62.5031 100.03C62.3345 100.03 62.1888 100.061 62.0661 100.122C61.9435 100.183 61.8131 100.275 61.6751 100.398C61.5371 100.521 61.4145 100.613 61.3071 100.674C61.2151 100.735 61.0848 100.766 60.9161 100.766H60.8471H57.0061C56.8681 100.766 56.7455 100.728 56.6381 100.651C56.5461 100.559 56.5001 100.444 56.5001 100.306C56.5001 99.8613 56.7148 99.363 57.1441 98.811C57.5888 98.259 58.2635 97.7913 59.1681 97.408C60.0881 97.0093 61.2151 96.81 62.5491 96.81C64.6038 96.81 66.1448 97.2393 67.1721 98.098C68.1995 98.9567 68.7131 100.183 68.7131 101.778V108.379C68.7131 108.548 68.6518 108.693 68.5291 108.816C68.4065 108.939 68.2608 109 68.0921 109H64.0671C63.8985 109 63.7528 108.939 63.6301 108.816C63.5075 108.693 63.4461 108.548 63.4461 108.379V107.735C63.1088 108.195 62.6565 108.563 62.0891 108.839C61.5218 109.1 60.8855 109.23 60.1801 109.23ZM61.7671 105.826C62.2271 105.826 62.5875 105.68 62.8481 105.389C63.1241 105.098 63.2621 104.653 63.2621 104.055V104.032L61.9051 104.331C61.2305 104.484 60.8931 104.768 60.8931 105.182C60.8931 105.366 60.9698 105.519 61.1231 105.642C61.2765 105.765 61.4911 105.826 61.7671 105.826Z" fill="#F5EEEF"/>
</svg>
