<svg width="1558" height="708" viewBox="0 0 1558 708" fill="none" xmlns="http://www.w3.org/2000/svg">
<g filter="url(#filter0_d)">
<path d="M50 431.858C156.245 452.965 286.631 451.723 331.854 446.844C393.805 439.942 453.785 422.55 508.693 395.567C565.891 367.595 613.723 325.145 674.949 303.865C708.976 292.045 751.209 285.316 785.686 299.159C825.953 315.3 861.496 344.899 905.64 352.112C959.002 360.803 1011.95 331.949 1048.07 295.199C1084.19 258.448 1108.9 213.591 1143.01 175.263C1227.86 79.9359 1375.13 32.2348 1507.46 56.0729V657.5L50 653.552V431.858Z" fill="#22AF8B"/>
</g>
<defs>
<filter id="filter0_d" x="0" y="0" width="1557.46" height="707.5" filterUnits="userSpaceOnUse" color-interpolation-filters="sRGB">
<feFlood flood-opacity="0" result="BackgroundImageFix"/>
<feColorMatrix in="SourceAlpha" type="matrix" values="0 0 0 0 0 0 0 0 0 0 0 0 0 0 0 0 0 0 127 0"/>
<feOffset/>
<feGaussianBlur stdDeviation="25"/>
<feColorMatrix type="matrix" values="0 0 0 0 0 0 0 0 0 0 0 0 0 0 0 0 0 0 0.25 0"/>
<feBlend mode="normal" in2="BackgroundImageFix" result="effect1_dropShadow"/>
<feBlend mode="normal" in="SourceGraphic" in2="effect1_dropShadow" result="shape"/>
</filter>
</defs>
</svg>
