<svg width="51" height="51" viewBox="0 0 51 51" fill="none" xmlns="http://www.w3.org/2000/svg">
<path fill-rule="evenodd" clip-rule="evenodd" d="M0 17C0 7.61121 7.61115 0 17 0H34C43.3889 0 51 7.61121 51 17V34C51 43.3888 43.3889 51 34 51H17C7.61115 51 0 43.3888 0 34V17ZM10.4834 25.8142C15.1369 26.326 23.3087 27.2352 25.7541 27.578C26.0829 27.6249 26.3777 27.5751 26.6297 27.4296C26.8812 27.2844 27.0718 27.0551 27.1955 26.748C28.1221 24.4568 31.4204 16.9248 33.304 12.6388C33.4214 12.3722 33.3011 12.0923 33.0312 12.0051C32.4072 11.804 31.7 11.8904 31.0914 12.2417L11.2458 23.6996C10.6372 24.0509 10.2087 24.6202 10.0711 25.2612C10.0115 25.5386 10.1938 25.7827 10.4834 25.8142ZM34.516 15.4456C34.6 15.2527 34.7929 15.1084 35.0099 15.0776C35.2259 15.0463 35.4264 15.1335 35.523 15.301L41.7603 26.1044C42.3075 27.0521 41.8613 28.3372 40.7655 28.9698L20.8961 40.4415C19.8002 41.0742 18.4642 40.818 17.917 39.8704L11.6797 29.0669C11.583 28.8995 11.6079 28.6827 11.7428 28.5109C11.877 28.34 12.0984 28.244 12.3083 28.2671C16.5245 28.7281 23.9334 29.5491 26.1854 29.8627C27.3744 30.0287 28.5095 29.3733 28.9587 28.2626C29.7603 26.2856 32.4231 20.2013 34.516 15.4456Z" fill="white"/>
</svg>
