<svg width="51" height="51" viewBox="0 0 51 51" fill="none" xmlns="http://www.w3.org/2000/svg">
<path fill-rule="evenodd" clip-rule="evenodd" d="M17 0C7.61115 0 0 7.61121 0 17V34C0 43.3888 7.61115 51 17 51H34C43.3889 51 51 43.3888 51 34V17C51 7.61121 43.3889 0 34 0H17ZM13.92 14.5767C11.5285 15.9574 10.7091 19.0153 12.0898 21.4067L22.5898 39.5933C23.9706 41.9849 27.0285 42.8042 29.42 41.4235L38.0802 36.4235C40.4717 35.0427 41.2911 31.9849 39.9103 29.5933L29.4103 11.4067C28.0296 9.01526 24.9717 8.19592 22.5802 9.57666L13.92 14.5767ZM15.054 18.5408C14.5757 18.8169 14.4118 19.4286 14.6879 19.9067L23.6879 35.4952C23.9641 35.9735 24.5757 36.1375 25.054 35.8613L35.4463 29.8613C35.9245 29.5852 36.0884 28.9735 35.8123 28.4952L26.8123 12.9067C26.5362 12.4286 25.9245 12.2646 25.4463 12.5408L15.054 18.5408ZM33.4821 34.4594C34.0345 35.416 33.7066 36.6392 32.7501 37.1914C31.7936 37.7437 30.5703 37.416 30.018 36.4594C29.4657 35.5027 29.7936 34.2795 30.7501 33.7273C31.7066 33.175 32.9298 33.5027 33.4821 34.4594Z" fill="white"/>
</svg>
