<svg width="143" height="125" viewBox="0 0 143 125" fill="none" xmlns="http://www.w3.org/2000/svg">
<rect x="38" width="67" height="67" rx="17" fill="#F5EEEF"/>
<path d="M55.0322 44C54.7902 44 54.5812 43.912 54.4052 43.736C54.2292 43.56 54.1412 43.351 54.1412 43.109V21.791C54.1412 21.549 54.2292 21.34 54.4052 21.164C54.5812 20.988 54.7902 20.9 55.0322 20.9H65.0312C68.1112 20.9 70.5312 21.582 72.2912 22.946C74.0732 24.31 74.9642 26.323 74.9642 28.985C74.9642 31.625 74.0842 33.594 72.3242 34.892C70.5642 36.168 68.1332 36.806 65.0312 36.806H62.7212V43.109C62.7212 43.351 62.6332 43.56 62.4572 43.736C62.2812 43.912 62.0722 44 61.8302 44H55.0322ZM64.8662 30.701C65.2622 30.701 65.6142 30.558 65.9222 30.272C66.2302 29.964 66.3842 29.513 66.3842 28.919C66.3842 28.413 66.2632 27.973 66.0212 27.599C65.7792 27.225 65.3942 27.038 64.8662 27.038H62.5562V30.701H64.8662ZM77.9698 44C77.7278 44 77.5188 43.912 77.3428 43.736C77.1668 43.56 77.0788 43.351 77.0788 43.109V27.731C77.0788 27.489 77.1668 27.28 77.3428 27.104C77.5188 26.928 77.7278 26.84 77.9698 26.84H83.7448C83.9868 26.84 84.1958 26.928 84.3718 27.104C84.5478 27.28 84.6358 27.489 84.6358 27.731V28.886C85.3618 28.248 86.1648 27.753 87.0448 27.401C87.9248 27.027 88.8378 26.84 89.7838 26.84H91.3678C91.6098 26.84 91.8188 26.928 91.9948 27.104C92.1707 27.28 92.2587 27.489 92.2587 27.731V32.879C92.2587 33.121 92.1707 33.33 91.9948 33.506C91.8188 33.682 91.6098 33.77 91.3678 33.77H87.1108C85.7908 33.77 85.1308 34.43 85.1308 35.75V43.109C85.1308 43.351 85.0428 43.56 84.8668 43.736C84.6908 43.912 84.4818 44 84.2398 44H77.9698Z" fill="#22AF8B"/>
<path d="M39.4497 98.23C38.591 98.23 37.8167 98.069 37.1267 97.747C36.452 97.425 35.923 96.988 35.5397 96.436C35.1717 95.884 34.9877 95.263 34.9877 94.573C34.9877 92.503 36.6667 91.1767 40.0247 90.594L42.4627 90.203V90.18C42.4627 89.7353 42.4243 89.4363 42.3477 89.283C42.271 89.1143 42.0793 89.03 41.7727 89.03C41.604 89.03 41.4583 89.0607 41.3357 89.122C41.213 89.1833 41.0827 89.2753 40.9447 89.398C40.8067 89.5207 40.684 89.6127 40.5767 89.674C40.4847 89.7353 40.3543 89.766 40.1857 89.766H40.1167H36.2757C36.1377 89.766 36.015 89.7277 35.9077 89.651C35.8157 89.559 35.7697 89.444 35.7697 89.306C35.7697 88.8613 35.9843 88.363 36.4137 87.811C36.8583 87.259 37.533 86.7913 38.4377 86.408C39.3577 86.0093 40.4847 85.81 41.8187 85.81C43.8733 85.81 45.4143 86.2393 46.4417 87.098C47.469 87.9567 47.9827 89.1833 47.9827 90.778V97.379C47.9827 97.5477 47.9213 97.6933 47.7987 97.816C47.676 97.9387 47.5303 98 47.3617 98H43.3367C43.168 98 43.0223 97.9387 42.8997 97.816C42.777 97.6933 42.7157 97.5477 42.7157 97.379V96.735C42.3783 97.195 41.926 97.563 41.3587 97.839C40.7913 98.0997 40.155 98.23 39.4497 98.23ZM41.0367 94.826C41.4967 94.826 41.857 94.6803 42.1177 94.389C42.3937 94.0977 42.5317 93.653 42.5317 93.055V93.032L41.1747 93.331C40.5 93.4843 40.1627 93.768 40.1627 94.182C40.1627 94.366 40.2393 94.5193 40.3927 94.642C40.546 94.7647 40.7607 94.826 41.0367 94.826ZM54.5163 98.23C53.0903 98.23 51.9403 97.8007 51.0663 96.942C50.1923 96.0833 49.717 94.7417 49.6403 92.917L49.6173 91.997L49.6403 91.1C49.7016 89.3673 50.177 88.0563 51.0663 87.167C51.971 86.2623 53.121 85.81 54.5163 85.81C55.7583 85.81 56.778 86.1703 57.5753 86.891V82.291C57.5753 82.1223 57.6366 81.9767 57.7593 81.854C57.882 81.7313 58.0276 81.67 58.1963 81.67H62.4513C62.62 81.67 62.7656 81.7313 62.8883 81.854C63.011 81.9767 63.0723 82.1223 63.0723 82.291V97.379C63.0723 97.5477 63.011 97.6933 62.8883 97.816C62.7656 97.9387 62.62 98 62.4513 98H58.5413C58.3726 98 58.227 97.9387 58.1043 97.816C57.9816 97.6933 57.9203 97.5477 57.9203 97.379V96.85C57.1076 97.77 55.973 98.23 54.5163 98.23ZM56.4253 94.113C56.824 94.113 57.1076 94.0057 57.2763 93.791C57.445 93.561 57.5446 93.2237 57.5753 92.779C57.606 92.319 57.6213 92.0353 57.6213 91.928C57.6213 91.8207 57.606 91.537 57.5753 91.077C57.5446 90.6937 57.4373 90.41 57.2533 90.226C57.0846 90.0267 56.8086 89.927 56.4253 89.927C56.0266 89.927 55.743 90.0343 55.5743 90.249C55.421 90.4637 55.3213 90.801 55.2753 91.261C55.26 91.4143 55.2523 91.6673 55.2523 92.02C55.2523 92.3727 55.26 92.6257 55.2753 92.779C55.3213 93.239 55.421 93.5763 55.5743 93.791C55.743 94.0057 56.0266 94.113 56.4253 94.113ZM71.4934 98.23C67.2767 98.23 65.0534 96.5203 64.8234 93.101C64.808 92.871 64.8004 92.5107 64.8004 92.02C64.8004 91.5293 64.808 91.169 64.8234 90.939C64.9307 89.2677 65.567 87.995 66.7324 87.121C67.8977 86.247 69.4847 85.81 71.4934 85.81C73.502 85.81 75.089 86.247 76.2544 87.121C77.4197 87.995 78.056 89.2677 78.1634 90.939C78.194 91.399 78.2094 91.7593 78.2094 92.02C78.2094 92.2807 78.194 92.641 78.1634 93.101C77.9334 96.5203 75.71 98.23 71.4934 98.23ZM71.4934 94.55C71.9074 94.55 72.1757 94.4427 72.2984 94.228C72.421 93.998 72.4977 93.584 72.5284 92.986C72.5437 92.8327 72.5514 92.5107 72.5514 92.02C72.5514 91.5293 72.5437 91.2073 72.5284 91.054C72.4824 90.4713 72.398 90.065 72.2754 89.835C72.1527 89.605 71.892 89.49 71.4934 89.49C71.0947 89.49 70.834 89.605 70.7114 89.835C70.5887 90.065 70.5044 90.4713 70.4584 91.054L70.4354 92.02L70.4584 92.986C70.489 93.584 70.5657 93.998 70.6884 94.228C70.811 94.4427 71.0794 94.55 71.4934 94.55ZM88.4582 98.23C87.0015 98.23 85.8669 97.77 85.0542 96.85V97.379C85.0542 97.5477 84.9929 97.6933 84.8702 97.816C84.7475 97.9387 84.6019 98 84.4332 98H80.5232C80.3545 98 80.2089 97.9387 80.0862 97.816C79.9635 97.6933 79.9022 97.5477 79.9022 97.379V82.291C79.9022 82.1223 79.9635 81.9767 80.0862 81.854C80.2089 81.7313 80.3545 81.67 80.5232 81.67H84.7782C84.9469 81.67 85.0925 81.7313 85.2152 81.854C85.3379 81.9767 85.3992 82.1223 85.3992 82.291V86.891C86.1965 86.1703 87.2162 85.81 88.4582 85.81C89.8535 85.81 90.9959 86.2623 91.8852 87.167C92.7899 88.0563 93.2729 89.3673 93.3342 91.1C93.3495 91.33 93.3572 91.629 93.3572 91.997C93.3572 92.3803 93.3495 92.687 93.3342 92.917C93.2575 94.7417 92.7822 96.0833 91.9082 96.942C91.0342 97.8007 89.8842 98.23 88.4582 98.23ZM86.5492 94.113C86.9479 94.113 87.2239 94.0057 87.3772 93.791C87.5459 93.5763 87.6532 93.239 87.6992 92.779C87.7299 92.4723 87.7452 92.2193 87.7452 92.02C87.7452 91.8207 87.7299 91.5677 87.6992 91.261C87.6532 90.801 87.5459 90.4637 87.3772 90.249C87.2239 90.0343 86.9479 89.927 86.5492 89.927C86.1659 89.927 85.8822 90.0267 85.6982 90.226C85.5295 90.41 85.4299 90.6937 85.3992 91.077C85.3839 91.307 85.3762 91.5907 85.3762 91.928C85.3762 92.2653 85.3839 92.549 85.3992 92.779C85.4299 93.2237 85.5295 93.561 85.6982 93.791C85.8669 94.0057 86.1505 94.113 86.5492 94.113ZM101.295 98.23C99.2099 98.23 97.5922 97.724 96.4422 96.712C95.2922 95.6847 94.7172 94.1283 94.7172 92.043V91.882C94.7479 89.9347 95.3459 88.4397 96.5112 87.397C97.6919 86.339 99.2789 85.81 101.272 85.81C102.714 85.81 103.925 86.0937 104.906 86.661C105.903 87.213 106.639 87.9643 107.114 88.915C107.59 89.8503 107.827 90.9007 107.827 92.066V92.756C107.827 92.9247 107.766 93.0703 107.643 93.193C107.521 93.3157 107.375 93.377 107.206 93.377H100.352V93.492C100.352 93.9673 100.421 94.32 100.559 94.55C100.697 94.78 100.927 94.895 101.249 94.895C101.372 94.895 101.472 94.872 101.548 94.826C101.625 94.7647 101.748 94.6497 101.916 94.481C102.054 94.343 102.169 94.2587 102.261 94.228C102.353 94.182 102.491 94.159 102.675 94.159H107.022C107.16 94.159 107.275 94.205 107.367 94.297C107.475 94.3737 107.528 94.481 107.528 94.619C107.528 95.0483 107.291 95.5543 106.815 96.137C106.34 96.7043 105.627 97.195 104.676 97.609C103.741 98.023 102.614 98.23 101.295 98.23ZM102.192 90.502V90.479C102.192 89.513 101.886 89.03 101.272 89.03C100.659 89.03 100.352 89.513 100.352 90.479V90.502H102.192ZM1.93237 124.37C1.7637 124.37 1.61803 124.309 1.49537 124.186C1.3727 124.063 1.31137 123.918 1.31137 123.749V108.661C1.31137 108.492 1.3727 108.347 1.49537 108.224C1.61803 108.101 1.7637 108.04 1.93237 108.04H5.84237C6.01103 108.04 6.1567 108.101 6.27937 108.224C6.40203 108.347 6.46337 108.492 6.46337 108.661V109.351C6.83137 108.876 7.29903 108.5 7.86637 108.224C8.44903 107.948 9.11603 107.81 9.86737 107.81C11.2934 107.81 12.4434 108.239 13.3174 109.098C14.1914 109.957 14.6667 111.298 14.7434 113.123C14.7587 113.353 14.7664 113.652 14.7664 114.02C14.7664 114.403 14.7587 114.71 14.7434 114.94C14.682 116.673 14.199 117.991 13.2944 118.896C12.405 119.785 11.2627 120.23 9.86737 120.23C8.47203 120.23 7.45237 119.77 6.80837 118.85V123.749C6.80837 123.918 6.74703 124.063 6.62437 124.186C6.5017 124.309 6.35603 124.37 6.18737 124.37H1.93237ZM7.95837 116.113C8.35703 116.113 8.63303 116.006 8.78637 115.791C8.95503 115.576 9.06237 115.239 9.10837 114.779C9.13903 114.472 9.15437 114.219 9.15437 114.02C9.15437 113.821 9.13903 113.568 9.10837 113.261C9.06237 112.801 8.95503 112.464 8.78637 112.249C8.63303 112.034 8.35703 111.927 7.95837 111.927C7.5597 111.927 7.27603 112.042 7.10737 112.272C6.9387 112.487 6.83903 112.816 6.80837 113.261C6.79303 113.491 6.78537 113.775 6.78537 114.112C6.78537 114.449 6.79303 114.733 6.80837 114.963C6.83903 115.346 6.9387 115.638 7.10737 115.837C7.29137 116.021 7.57503 116.113 7.95837 116.113ZM17.1384 120C16.9698 120 16.8241 119.939 16.7014 119.816C16.5788 119.693 16.5174 119.548 16.5174 119.379V108.661C16.5174 108.492 16.5788 108.347 16.7014 108.224C16.8241 108.101 16.9698 108.04 17.1384 108.04H21.1634C21.3321 108.04 21.4778 108.101 21.6004 108.224C21.7231 108.347 21.7844 108.492 21.7844 108.661V109.466C22.2904 109.021 22.8501 108.676 23.4634 108.431C24.0768 108.17 24.7131 108.04 25.3724 108.04H26.4764C26.6451 108.04 26.7908 108.101 26.9134 108.224C27.0361 108.347 27.0974 108.492 27.0974 108.661V112.249C27.0974 112.418 27.0361 112.563 26.9134 112.686C26.7908 112.809 26.6451 112.87 26.4764 112.87H23.5094C22.5894 112.87 22.1294 113.33 22.1294 114.25V119.379C22.1294 119.548 22.0681 119.693 21.9454 119.816C21.8228 119.939 21.6771 120 21.5084 120H17.1384ZM34.6087 120.23C32.5234 120.23 30.9057 119.724 29.7557 118.712C28.6057 117.685 28.0307 116.128 28.0307 114.043V113.882C28.0614 111.935 28.6594 110.44 29.8247 109.397C31.0054 108.339 32.5924 107.81 34.5857 107.81C36.0271 107.81 37.2384 108.094 38.2197 108.661C39.2164 109.213 39.9524 109.964 40.4277 110.915C40.9031 111.85 41.1407 112.901 41.1407 114.066V114.756C41.1407 114.925 41.0794 115.07 40.9567 115.193C40.8341 115.316 40.6884 115.377 40.5197 115.377H33.6657V115.492C33.6657 115.967 33.7347 116.32 33.8727 116.55C34.0107 116.78 34.2407 116.895 34.5627 116.895C34.6854 116.895 34.7851 116.872 34.8617 116.826C34.9384 116.765 35.0611 116.65 35.2297 116.481C35.3677 116.343 35.4827 116.259 35.5747 116.228C35.6667 116.182 35.8047 116.159 35.9887 116.159H40.3357C40.4737 116.159 40.5887 116.205 40.6807 116.297C40.7881 116.374 40.8417 116.481 40.8417 116.619C40.8417 117.048 40.6041 117.554 40.1287 118.137C39.6534 118.704 38.9404 119.195 37.9897 119.609C37.0544 120.023 35.9274 120.23 34.6087 120.23ZM35.5057 112.502V112.479C35.5057 111.513 35.1991 111.03 34.5857 111.03C33.9724 111.03 33.6657 111.513 33.6657 112.479V112.502H35.5057ZM43.3728 120C43.2041 120 43.0585 119.939 42.9358 119.816C42.8131 119.693 42.7518 119.548 42.7518 119.379V108.661C42.7518 108.492 42.8131 108.347 42.9358 108.224C43.0585 108.101 43.2041 108.04 43.3728 108.04H47.1678C47.3365 108.04 47.4821 108.101 47.6048 108.224C47.7275 108.347 47.7888 108.492 47.7888 108.661V109.42C48.1108 108.991 48.5785 108.615 49.1918 108.293C49.8051 107.971 50.4951 107.81 51.2618 107.81C52.9025 107.81 54.0218 108.439 54.6198 109.696C54.9878 109.159 55.4938 108.715 56.1378 108.362C56.7818 107.994 57.4488 107.81 58.1388 107.81C59.3808 107.81 60.3928 108.239 61.1748 109.098C61.9721 109.941 62.3708 111.222 62.3708 112.939V119.379C62.3708 119.548 62.3095 119.693 62.1868 119.816C62.0641 119.939 61.9185 120 61.7498 120H57.7018C57.5331 120 57.3875 119.939 57.2648 119.816C57.1421 119.693 57.0808 119.548 57.0808 119.379V113.054C57.0808 112.686 56.9965 112.41 56.8278 112.226C56.6745 112.027 56.4521 111.927 56.1608 111.927C55.8695 111.927 55.6471 112.027 55.4938 112.226C55.3405 112.41 55.2638 112.686 55.2638 113.054V119.379C55.2638 119.548 55.2025 119.693 55.0798 119.816C54.9571 119.939 54.8115 120 54.6428 120H50.5948C50.4261 120 50.2805 119.939 50.1578 119.816C50.0351 119.693 49.9738 119.548 49.9738 119.379V113.054C49.9738 112.686 49.8895 112.41 49.7208 112.226C49.5675 112.027 49.3451 111.927 49.0538 111.927C48.7625 111.927 48.5325 112.027 48.3638 112.226C48.2105 112.425 48.1338 112.701 48.1338 113.054V119.379C48.1338 119.548 48.0725 119.693 47.9498 119.816C47.8271 119.939 47.6815 120 47.5128 120H43.3728ZM65.0728 106.775C64.9041 106.775 64.7584 106.714 64.6358 106.591C64.5131 106.468 64.4518 106.323 64.4518 106.154V103.371C64.4518 103.202 64.5131 103.057 64.6358 102.934C64.7584 102.811 64.9041 102.75 65.0728 102.75H68.9598C69.1284 102.75 69.2741 102.811 69.3968 102.934C69.5194 103.057 69.5808 103.202 69.5808 103.371V106.154C69.5808 106.323 69.5194 106.468 69.3968 106.591C69.2741 106.714 69.1284 106.775 68.9598 106.775H65.0728ZM64.9578 120C64.7891 120 64.6434 119.939 64.5208 119.816C64.3981 119.693 64.3368 119.548 64.3368 119.379V108.661C64.3368 108.492 64.3981 108.347 64.5208 108.224C64.6434 108.101 64.7891 108.04 64.9578 108.04H69.0748C69.2434 108.04 69.3891 108.101 69.5118 108.224C69.6344 108.347 69.6958 108.492 69.6958 108.661V119.379C69.6958 119.548 69.6344 119.693 69.5118 119.816C69.3891 119.939 69.2434 120 69.0748 120H64.9578ZM77.9583 120.23C75.873 120.23 74.2553 119.724 73.1053 118.712C71.9553 117.685 71.3803 116.128 71.3803 114.043V113.882C71.411 111.935 72.009 110.44 73.1743 109.397C74.355 108.339 75.942 107.81 77.9353 107.81C79.3767 107.81 80.588 108.094 81.5693 108.661C82.566 109.213 83.302 109.964 83.7773 110.915C84.2527 111.85 84.4903 112.901 84.4903 114.066V114.756C84.4903 114.925 84.429 115.07 84.3063 115.193C84.1837 115.316 84.038 115.377 83.8693 115.377H77.0153V115.492C77.0153 115.967 77.0843 116.32 77.2223 116.55C77.3603 116.78 77.5903 116.895 77.9123 116.895C78.035 116.895 78.1347 116.872 78.2113 116.826C78.288 116.765 78.4107 116.65 78.5793 116.481C78.7173 116.343 78.8323 116.259 78.9243 116.228C79.0163 116.182 79.1543 116.159 79.3383 116.159H83.6853C83.8233 116.159 83.9383 116.205 84.0303 116.297C84.1377 116.374 84.1913 116.481 84.1913 116.619C84.1913 117.048 83.9537 117.554 83.4783 118.137C83.003 118.704 82.29 119.195 81.3393 119.609C80.404 120.023 79.277 120.23 77.9583 120.23ZM78.8553 112.502V112.479C78.8553 111.513 78.5487 111.03 77.9353 111.03C77.322 111.03 77.0153 111.513 77.0153 112.479V112.502H78.8553ZM86.7224 120C86.5537 120 86.4081 119.939 86.2854 119.816C86.1627 119.693 86.1014 119.548 86.1014 119.379V108.661C86.1014 108.492 86.1627 108.347 86.2854 108.224C86.4081 108.101 86.5537 108.04 86.7224 108.04H90.7474C90.9161 108.04 91.0617 108.101 91.1844 108.224C91.3071 108.347 91.3684 108.492 91.3684 108.661V109.466C91.8744 109.021 92.4341 108.676 93.0474 108.431C93.6607 108.17 94.2971 108.04 94.9564 108.04H96.0604C96.2291 108.04 96.3747 108.101 96.4974 108.224C96.6201 108.347 96.6814 108.492 96.6814 108.661V112.249C96.6814 112.418 96.6201 112.563 96.4974 112.686C96.3747 112.809 96.2291 112.87 96.0604 112.87H93.0934C92.1734 112.87 91.7134 113.33 91.7134 114.25V119.379C91.7134 119.548 91.6521 119.693 91.5294 119.816C91.4067 119.939 91.2611 120 91.0924 120H86.7224ZM102.512 124.37C102.344 124.37 102.198 124.309 102.075 124.186C101.953 124.063 101.891 123.918 101.891 123.749V108.661C101.891 108.492 101.953 108.347 102.075 108.224C102.198 108.101 102.344 108.04 102.512 108.04H106.422C106.591 108.04 106.737 108.101 106.859 108.224C106.982 108.347 107.043 108.492 107.043 108.661V109.351C107.411 108.876 107.879 108.5 108.446 108.224C109.029 107.948 109.696 107.81 110.447 107.81C111.873 107.81 113.023 108.239 113.897 109.098C114.771 109.957 115.247 111.298 115.323 113.123C115.339 113.353 115.346 113.652 115.346 114.02C115.346 114.403 115.339 114.71 115.323 114.94C115.262 116.673 114.779 117.991 113.874 118.896C112.985 119.785 111.843 120.23 110.447 120.23C109.052 120.23 108.032 119.77 107.388 118.85V123.749C107.388 123.918 107.327 124.063 107.204 124.186C107.082 124.309 106.936 124.37 106.767 124.37H102.512ZM108.538 116.113C108.937 116.113 109.213 116.006 109.366 115.791C109.535 115.576 109.642 115.239 109.688 114.779C109.719 114.472 109.734 114.219 109.734 114.02C109.734 113.821 109.719 113.568 109.688 113.261C109.642 112.801 109.535 112.464 109.366 112.249C109.213 112.034 108.937 111.927 108.538 111.927C108.14 111.927 107.856 112.042 107.687 112.272C107.519 112.487 107.419 112.816 107.388 113.261C107.373 113.491 107.365 113.775 107.365 114.112C107.365 114.449 107.373 114.733 107.388 114.963C107.419 115.346 107.519 115.638 107.687 115.837C107.871 116.021 108.155 116.113 108.538 116.113ZM117.719 120C117.55 120 117.404 119.939 117.282 119.816C117.159 119.693 117.098 119.548 117.098 119.379V108.661C117.098 108.492 117.159 108.347 117.282 108.224C117.404 108.101 117.55 108.04 117.719 108.04H121.744C121.912 108.04 122.058 108.101 122.181 108.224C122.303 108.347 122.365 108.492 122.365 108.661V109.466C122.871 109.021 123.43 108.676 124.044 108.431C124.657 108.17 125.293 108.04 125.953 108.04H127.057C127.225 108.04 127.371 108.101 127.494 108.224C127.616 108.347 127.677 108.492 127.677 108.661V112.249C127.677 112.418 127.616 112.563 127.494 112.686C127.371 112.809 127.225 112.87 127.057 112.87H124.09C123.17 112.87 122.71 113.33 122.71 114.25V119.379C122.71 119.548 122.648 119.693 122.526 119.816C122.403 119.939 122.257 120 122.089 120H117.719ZM135.35 120.23C131.133 120.23 128.91 118.52 128.68 115.101C128.664 114.871 128.657 114.511 128.657 114.02C128.657 113.529 128.664 113.169 128.68 112.939C128.787 111.268 129.423 109.995 130.589 109.121C131.754 108.247 133.341 107.81 135.35 107.81C137.358 107.81 138.945 108.247 140.111 109.121C141.276 109.995 141.912 111.268 142.02 112.939C142.05 113.399 142.066 113.759 142.066 114.02C142.066 114.281 142.05 114.641 142.02 115.101C141.79 118.52 139.566 120.23 135.35 120.23ZM135.35 116.55C135.764 116.55 136.032 116.443 136.155 116.228C136.277 115.998 136.354 115.584 136.385 114.986C136.4 114.833 136.408 114.511 136.408 114.02C136.408 113.529 136.4 113.207 136.385 113.054C136.339 112.471 136.254 112.065 136.132 111.835C136.009 111.605 135.748 111.49 135.35 111.49C134.951 111.49 134.69 111.605 134.568 111.835C134.445 112.065 134.361 112.471 134.315 113.054L134.292 114.02L134.315 114.986C134.345 115.584 134.422 115.998 134.545 116.228C134.667 116.443 134.936 116.55 135.35 116.55Z" fill="#F5EEEF"/>
</svg>
