<svg width="132" height="125" viewBox="0 0 132 125" fill="none" xmlns="http://www.w3.org/2000/svg">
<rect x="33" width="67" height="67" rx="17" fill="#F5EEEF"/>
<path d="M48.8398 44C48.5978 44 48.3888 43.912 48.2128 43.736C48.0368 43.56 47.9488 43.351 47.9488 43.109V21.791C47.9488 21.549 48.0368 21.34 48.2128 21.164C48.3888 20.988 48.5978 20.9 48.8398 20.9H58.8388C61.9188 20.9 64.3388 21.582 66.0988 22.946C67.8808 24.31 68.7718 26.323 68.7718 28.985C68.7718 31.625 67.8918 33.594 66.1318 34.892C64.3718 36.168 61.9408 36.806 58.8388 36.806H56.5288V43.109C56.5288 43.351 56.4408 43.56 56.2648 43.736C56.0888 43.912 55.8798 44 55.6378 44H48.8398ZM58.6738 30.701C59.0698 30.701 59.4218 30.558 59.7298 30.272C60.0378 29.964 60.1918 29.513 60.1918 28.919C60.1918 28.413 60.0708 27.973 59.8288 27.599C59.5868 27.225 59.2018 27.038 58.6738 27.038H56.3638V30.701H58.6738ZM78.9384 44.33C76.9584 44.33 75.3084 44.077 73.9884 43.571C72.6684 43.043 71.6894 42.405 71.0514 41.657C70.4354 40.909 70.1274 40.205 70.1274 39.545C70.1274 39.325 70.2044 39.138 70.3584 38.984C70.5124 38.808 70.6994 38.72 70.9194 38.72H76.6614H76.7934C77.0134 38.742 77.2224 38.819 77.4204 38.951C77.6184 39.061 77.7504 39.138 77.8164 39.182C78.0804 39.358 78.3114 39.49 78.5094 39.578C78.7074 39.666 78.9274 39.71 79.1694 39.71C79.3674 39.71 79.5434 39.666 79.6974 39.578C79.8514 39.49 79.9284 39.369 79.9284 39.215C79.9284 38.995 79.8624 38.808 79.7304 38.654C79.5984 38.5 79.2794 38.346 78.7734 38.192C78.2894 38.038 77.5304 37.862 76.4964 37.664C74.7364 37.334 73.2844 36.74 72.1404 35.882C71.0184 35.002 70.4574 33.759 70.4574 32.153C70.4574 31.185 70.7764 30.272 71.4144 29.414C72.0744 28.534 73.0314 27.83 74.2854 27.302C75.5614 26.774 77.0684 26.51 78.8064 26.51C80.5224 26.51 82.0404 26.774 83.3604 27.302C84.6804 27.808 85.6924 28.435 86.3964 29.183C87.1004 29.931 87.4524 30.635 87.4524 31.295C87.4524 31.515 87.3754 31.713 87.2214 31.889C87.0674 32.043 86.9024 32.12 86.7264 32.12H81.5124H81.1824C80.9844 32.12 80.7754 32.076 80.5554 31.988C80.3574 31.878 80.1704 31.757 79.9944 31.625C79.5324 31.295 79.1254 31.13 78.7734 31.13C78.5974 31.13 78.4434 31.185 78.3114 31.295C78.1794 31.383 78.1134 31.504 78.1134 31.658C78.1134 31.878 78.1794 32.065 78.3114 32.219C78.4654 32.351 78.7954 32.494 79.3014 32.648C79.8294 32.802 80.6434 32.956 81.7434 33.11C83.9434 33.44 85.5604 34.133 86.5944 35.189C87.6504 36.223 88.1784 37.378 88.1784 38.654C88.1784 40.436 87.3754 41.833 85.7694 42.845C84.1634 43.835 81.8864 44.33 78.9384 44.33Z" fill="#22AF8B"/>
<path d="M33.9497 98.23C33.091 98.23 32.3167 98.069 31.6267 97.747C30.952 97.425 30.423 96.988 30.0397 96.436C29.6717 95.884 29.4877 95.263 29.4877 94.573C29.4877 92.503 31.1667 91.1767 34.5247 90.594L36.9627 90.203V90.18C36.9627 89.7353 36.9243 89.4363 36.8477 89.283C36.771 89.1143 36.5793 89.03 36.2727 89.03C36.104 89.03 35.9583 89.0607 35.8357 89.122C35.713 89.1833 35.5827 89.2753 35.4447 89.398C35.3067 89.5207 35.184 89.6127 35.0767 89.674C34.9847 89.7353 34.8543 89.766 34.6857 89.766H34.6167H30.7757C30.6377 89.766 30.515 89.7277 30.4077 89.651C30.3157 89.559 30.2697 89.444 30.2697 89.306C30.2697 88.8613 30.4843 88.363 30.9137 87.811C31.3583 87.259 32.033 86.7913 32.9377 86.408C33.8577 86.0093 34.9847 85.81 36.3187 85.81C38.3733 85.81 39.9143 86.2393 40.9417 87.098C41.969 87.9567 42.4827 89.1833 42.4827 90.778V97.379C42.4827 97.5477 42.4213 97.6933 42.2987 97.816C42.176 97.9387 42.0303 98 41.8617 98H37.8367C37.668 98 37.5223 97.9387 37.3997 97.816C37.277 97.6933 37.2157 97.5477 37.2157 97.379V96.735C36.8783 97.195 36.426 97.563 35.8587 97.839C35.2913 98.0997 34.655 98.23 33.9497 98.23ZM35.5367 94.826C35.9967 94.826 36.357 94.6803 36.6177 94.389C36.8937 94.0977 37.0317 93.653 37.0317 93.055V93.032L35.6747 93.331C35 93.4843 34.6627 93.768 34.6627 94.182C34.6627 94.366 34.7393 94.5193 34.8927 94.642C35.046 94.7647 35.2607 94.826 35.5367 94.826ZM49.0163 98.23C47.5903 98.23 46.4403 97.8007 45.5663 96.942C44.6923 96.0833 44.217 94.7417 44.1403 92.917L44.1173 91.997L44.1403 91.1C44.2016 89.3673 44.677 88.0563 45.5663 87.167C46.471 86.2623 47.621 85.81 49.0163 85.81C50.2583 85.81 51.278 86.1703 52.0753 86.891V82.291C52.0753 82.1223 52.1366 81.9767 52.2593 81.854C52.382 81.7313 52.5276 81.67 52.6963 81.67H56.9513C57.12 81.67 57.2656 81.7313 57.3883 81.854C57.511 81.9767 57.5723 82.1223 57.5723 82.291V97.379C57.5723 97.5477 57.511 97.6933 57.3883 97.816C57.2656 97.9387 57.12 98 56.9513 98H53.0413C52.8726 98 52.727 97.9387 52.6043 97.816C52.4816 97.6933 52.4203 97.5477 52.4203 97.379V96.85C51.6076 97.77 50.473 98.23 49.0163 98.23ZM50.9253 94.113C51.324 94.113 51.6076 94.0057 51.7763 93.791C51.945 93.561 52.0446 93.2237 52.0753 92.779C52.106 92.319 52.1213 92.0353 52.1213 91.928C52.1213 91.8207 52.106 91.537 52.0753 91.077C52.0446 90.6937 51.9373 90.41 51.7533 90.226C51.5846 90.0267 51.3086 89.927 50.9253 89.927C50.5266 89.927 50.243 90.0343 50.0743 90.249C49.921 90.4637 49.8213 90.801 49.7753 91.261C49.76 91.4143 49.7523 91.6673 49.7523 92.02C49.7523 92.3727 49.76 92.6257 49.7753 92.779C49.8213 93.239 49.921 93.5763 50.0743 93.791C50.243 94.0057 50.5266 94.113 50.9253 94.113ZM65.9934 98.23C61.7767 98.23 59.5534 96.5203 59.3234 93.101C59.308 92.871 59.3004 92.5107 59.3004 92.02C59.3004 91.5293 59.308 91.169 59.3234 90.939C59.4307 89.2677 60.067 87.995 61.2324 87.121C62.3977 86.247 63.9847 85.81 65.9934 85.81C68.002 85.81 69.589 86.247 70.7544 87.121C71.9197 87.995 72.556 89.2677 72.6634 90.939C72.694 91.399 72.7094 91.7593 72.7094 92.02C72.7094 92.2807 72.694 92.641 72.6634 93.101C72.4334 96.5203 70.21 98.23 65.9934 98.23ZM65.9934 94.55C66.4074 94.55 66.6757 94.4427 66.7984 94.228C66.921 93.998 66.9977 93.584 67.0284 92.986C67.0437 92.8327 67.0514 92.5107 67.0514 92.02C67.0514 91.5293 67.0437 91.2073 67.0284 91.054C66.9824 90.4713 66.898 90.065 66.7754 89.835C66.6527 89.605 66.392 89.49 65.9934 89.49C65.5947 89.49 65.334 89.605 65.2114 89.835C65.0887 90.065 65.0044 90.4713 64.9584 91.054L64.9354 92.02L64.9584 92.986C64.989 93.584 65.0657 93.998 65.1884 94.228C65.311 94.4427 65.5794 94.55 65.9934 94.55ZM82.9582 98.23C81.5015 98.23 80.3669 97.77 79.5542 96.85V97.379C79.5542 97.5477 79.4929 97.6933 79.3702 97.816C79.2475 97.9387 79.1019 98 78.9332 98H75.0232C74.8545 98 74.7089 97.9387 74.5862 97.816C74.4635 97.6933 74.4022 97.5477 74.4022 97.379V82.291C74.4022 82.1223 74.4635 81.9767 74.5862 81.854C74.7089 81.7313 74.8545 81.67 75.0232 81.67H79.2782C79.4469 81.67 79.5925 81.7313 79.7152 81.854C79.8379 81.9767 79.8992 82.1223 79.8992 82.291V86.891C80.6965 86.1703 81.7162 85.81 82.9582 85.81C84.3535 85.81 85.4959 86.2623 86.3852 87.167C87.2899 88.0563 87.7729 89.3673 87.8342 91.1C87.8495 91.33 87.8572 91.629 87.8572 91.997C87.8572 92.3803 87.8495 92.687 87.8342 92.917C87.7575 94.7417 87.2822 96.0833 86.4082 96.942C85.5342 97.8007 84.3842 98.23 82.9582 98.23ZM81.0492 94.113C81.4479 94.113 81.7239 94.0057 81.8772 93.791C82.0459 93.5763 82.1532 93.239 82.1992 92.779C82.2299 92.4723 82.2452 92.2193 82.2452 92.02C82.2452 91.8207 82.2299 91.5677 82.1992 91.261C82.1532 90.801 82.0459 90.4637 81.8772 90.249C81.7239 90.0343 81.4479 89.927 81.0492 89.927C80.6659 89.927 80.3822 90.0267 80.1982 90.226C80.0295 90.41 79.9299 90.6937 79.8992 91.077C79.8839 91.307 79.8762 91.5907 79.8762 91.928C79.8762 92.2653 79.8839 92.549 79.8992 92.779C79.9299 93.2237 80.0295 93.561 80.1982 93.791C80.3669 94.0057 80.6505 94.113 81.0492 94.113ZM95.7952 98.23C93.7099 98.23 92.0922 97.724 90.9422 96.712C89.7922 95.6847 89.2172 94.1283 89.2172 92.043V91.882C89.2479 89.9347 89.8459 88.4397 91.0112 87.397C92.1919 86.339 93.7789 85.81 95.7722 85.81C97.2136 85.81 98.4249 86.0937 99.4062 86.661C100.403 87.213 101.139 87.9643 101.614 88.915C102.09 89.8503 102.327 90.9007 102.327 92.066V92.756C102.327 92.9247 102.266 93.0703 102.143 93.193C102.021 93.3157 101.875 93.377 101.706 93.377H94.8522V93.492C94.8522 93.9673 94.9212 94.32 95.0592 94.55C95.1972 94.78 95.4272 94.895 95.7492 94.895C95.8719 94.895 95.9716 94.872 96.0482 94.826C96.1249 94.7647 96.2476 94.6497 96.4162 94.481C96.5542 94.343 96.6692 94.2587 96.7612 94.228C96.8532 94.182 96.9912 94.159 97.1752 94.159H101.522C101.66 94.159 101.775 94.205 101.867 94.297C101.975 94.3737 102.028 94.481 102.028 94.619C102.028 95.0483 101.791 95.5543 101.315 96.137C100.84 96.7043 100.127 97.195 99.1762 97.609C98.2409 98.023 97.1139 98.23 95.7952 98.23ZM96.6922 90.502V90.479C96.6922 89.513 96.3856 89.03 95.7722 89.03C95.1589 89.03 94.8522 89.513 94.8522 90.479V90.502H96.6922ZM1.66577 124.37C1.4971 124.37 1.35143 124.309 1.22877 124.186C1.1061 124.063 1.04477 123.918 1.04477 123.749V108.661C1.04477 108.492 1.1061 108.347 1.22877 108.224C1.35143 108.101 1.4971 108.04 1.66577 108.04H5.57577C5.74443 108.04 5.8901 108.101 6.01277 108.224C6.13543 108.347 6.19677 108.492 6.19677 108.661V109.351C6.56477 108.876 7.03243 108.5 7.59977 108.224C8.18243 107.948 8.84943 107.81 9.60077 107.81C11.0268 107.81 12.1768 108.239 13.0508 109.098C13.9248 109.957 14.4001 111.298 14.4768 113.123C14.4921 113.353 14.4998 113.652 14.4998 114.02C14.4998 114.403 14.4921 114.71 14.4768 114.94C14.4154 116.673 13.9324 117.991 13.0278 118.896C12.1384 119.785 10.9961 120.23 9.60077 120.23C8.20543 120.23 7.18577 119.77 6.54177 118.85V123.749C6.54177 123.918 6.48043 124.063 6.35777 124.186C6.2351 124.309 6.08943 124.37 5.92077 124.37H1.66577ZM7.69177 116.113C8.09043 116.113 8.36643 116.006 8.51977 115.791C8.68843 115.576 8.79577 115.239 8.84177 114.779C8.87243 114.472 8.88777 114.219 8.88777 114.02C8.88777 113.821 8.87243 113.568 8.84177 113.261C8.79577 112.801 8.68843 112.464 8.51977 112.249C8.36643 112.034 8.09043 111.927 7.69177 111.927C7.2931 111.927 7.00943 112.042 6.84077 112.272C6.6721 112.487 6.57243 112.816 6.54177 113.261C6.52643 113.491 6.51877 113.775 6.51877 114.112C6.51877 114.449 6.52643 114.733 6.54177 114.963C6.57243 115.346 6.6721 115.638 6.84077 115.837C7.02477 116.021 7.30843 116.113 7.69177 116.113ZM16.8718 120C16.7032 120 16.5575 119.939 16.4348 119.816C16.3122 119.693 16.2508 119.548 16.2508 119.379V104.291C16.2508 104.122 16.3122 103.977 16.4348 103.854C16.5575 103.731 16.7032 103.67 16.8718 103.67H21.3568C21.5255 103.67 21.6712 103.731 21.7938 103.854C21.9165 103.977 21.9778 104.122 21.9778 104.291V109.236C22.3918 108.791 22.8978 108.446 23.4958 108.201C24.1092 107.94 24.7685 107.81 25.4738 107.81C26.2865 107.81 27.0378 108.002 27.7278 108.385C28.4178 108.753 28.9775 109.336 29.4068 110.133C29.8362 110.915 30.0508 111.881 30.0508 113.031V119.379C30.0508 119.548 29.9895 119.693 29.8668 119.816C29.7442 119.939 29.5985 120 29.4298 120H24.9218C24.7532 120 24.6075 119.939 24.4848 119.816C24.3622 119.693 24.3008 119.548 24.3008 119.379V113.192C24.3008 112.778 24.2012 112.464 24.0018 112.249C23.8025 112.034 23.5188 111.927 23.1508 111.927C22.7828 111.927 22.4915 112.034 22.2768 112.249C22.0775 112.464 21.9778 112.778 21.9778 113.192V119.379C21.9778 119.548 21.9165 119.693 21.7938 119.816C21.6712 119.939 21.5255 120 21.3568 120H16.8718ZM38.3439 120.23C34.1273 120.23 31.9039 118.52 31.6739 115.101C31.6586 114.871 31.6509 114.511 31.6509 114.02C31.6509 113.529 31.6586 113.169 31.6739 112.939C31.7813 111.268 32.4176 109.995 33.5829 109.121C34.7483 108.247 36.3353 107.81 38.3439 107.81C40.3526 107.81 41.9396 108.247 43.1049 109.121C44.2703 109.995 44.9066 111.268 45.0139 112.939C45.0446 113.399 45.0599 113.759 45.0599 114.02C45.0599 114.281 45.0446 114.641 45.0139 115.101C44.7839 118.52 42.5606 120.23 38.3439 120.23ZM38.3439 116.55C38.7579 116.55 39.0263 116.443 39.1489 116.228C39.2716 115.998 39.3483 115.584 39.3789 114.986C39.3943 114.833 39.4019 114.511 39.4019 114.02C39.4019 113.529 39.3943 113.207 39.3789 113.054C39.3329 112.471 39.2486 112.065 39.1259 111.835C39.0033 111.605 38.7426 111.49 38.3439 111.49C37.9453 111.49 37.6846 111.605 37.5619 111.835C37.4393 112.065 37.3549 112.471 37.3089 113.054L37.2859 114.02L37.3089 114.986C37.3396 115.584 37.4163 115.998 37.5389 116.228C37.6616 116.443 37.9299 116.55 38.3439 116.55ZM54.1588 120C52.3494 120 50.9388 119.624 49.9268 118.873C48.9148 118.106 48.4088 116.834 48.4088 115.055V112.065H46.5918C46.4231 112.065 46.2774 112.004 46.1548 111.881C46.0321 111.758 45.9708 111.613 45.9708 111.444V108.661C45.9708 108.492 46.0321 108.347 46.1548 108.224C46.2774 108.101 46.4231 108.04 46.5918 108.04H48.4088V104.291C48.4088 104.122 48.4701 103.977 48.5928 103.854C48.7154 103.731 48.8611 103.67 49.0298 103.67H53.0548C53.2234 103.67 53.3691 103.731 53.4918 103.854C53.6144 103.977 53.6758 104.122 53.6758 104.291V108.04H56.5738C56.7424 108.04 56.8881 108.101 57.0108 108.224C57.1334 108.347 57.1948 108.492 57.1948 108.661V111.444C57.1948 111.613 57.1334 111.758 57.0108 111.881C56.8881 112.004 56.7424 112.065 56.5738 112.065H53.6758V114.595C53.6758 115.362 54.0054 115.745 54.6648 115.745H56.7578C56.9264 115.745 57.0721 115.806 57.1948 115.929C57.3174 116.052 57.3788 116.197 57.3788 116.366V119.379C57.3788 119.548 57.3174 119.693 57.1948 119.816C57.0721 119.939 56.9264 120 56.7578 120H54.1588ZM65.342 120.23C61.1253 120.23 58.902 118.52 58.672 115.101C58.6567 114.871 58.649 114.511 58.649 114.02C58.649 113.529 58.6567 113.169 58.672 112.939C58.7793 111.268 59.4157 109.995 60.581 109.121C61.7463 108.247 63.3333 107.81 65.342 107.81C67.3507 107.81 68.9377 108.247 70.103 109.121C71.2683 109.995 71.9047 111.268 72.012 112.939C72.0427 113.399 72.058 113.759 72.058 114.02C72.058 114.281 72.0427 114.641 72.012 115.101C71.782 118.52 69.5587 120.23 65.342 120.23ZM65.342 116.55C65.756 116.55 66.0243 116.443 66.147 116.228C66.2697 115.998 66.3463 115.584 66.377 114.986C66.3923 114.833 66.4 114.511 66.4 114.02C66.4 113.529 66.3923 113.207 66.377 113.054C66.331 112.471 66.2467 112.065 66.124 111.835C66.0013 111.605 65.7407 111.49 65.342 111.49C64.9433 111.49 64.6827 111.605 64.56 111.835C64.4373 112.065 64.353 112.471 64.307 113.054L64.284 114.02L64.307 114.986C64.3377 115.584 64.4143 115.998 64.537 116.228C64.6597 116.443 64.928 116.55 65.342 116.55ZM79.3628 120.23C77.9828 120.23 76.8328 120.054 75.9128 119.701C74.9928 119.333 74.3105 118.888 73.8658 118.367C73.4365 117.846 73.2218 117.355 73.2218 116.895C73.2218 116.742 73.2755 116.611 73.3828 116.504C73.4902 116.381 73.6205 116.32 73.7738 116.32H77.7758H77.8678C78.0212 116.335 78.1668 116.389 78.3048 116.481C78.4428 116.558 78.5348 116.611 78.5808 116.642C78.7648 116.765 78.9258 116.857 79.0638 116.918C79.2018 116.979 79.3552 117.01 79.5238 117.01C79.6618 117.01 79.7845 116.979 79.8918 116.918C79.9992 116.857 80.0528 116.772 80.0528 116.665C80.0528 116.512 80.0068 116.381 79.9148 116.274C79.8228 116.167 79.6005 116.059 79.2478 115.952C78.9105 115.845 78.3815 115.722 77.6608 115.584C76.4342 115.354 75.4222 114.94 74.6248 114.342C73.8428 113.729 73.4518 112.862 73.4518 111.743C73.4518 111.068 73.6742 110.432 74.1188 109.834C74.5788 109.221 75.2458 108.73 76.1198 108.362C77.0092 107.994 78.0595 107.81 79.2708 107.81C80.4668 107.81 81.5248 107.994 82.4448 108.362C83.3648 108.715 84.0702 109.152 84.5608 109.673C85.0515 110.194 85.2968 110.685 85.2968 111.145C85.2968 111.298 85.2432 111.436 85.1358 111.559C85.0285 111.666 84.9135 111.72 84.7908 111.72H81.1568H80.9268C80.7888 111.72 80.6432 111.689 80.4898 111.628C80.3518 111.551 80.2215 111.467 80.0988 111.375C79.7768 111.145 79.4932 111.03 79.2478 111.03C79.1252 111.03 79.0178 111.068 78.9258 111.145C78.8338 111.206 78.7878 111.291 78.7878 111.398C78.7878 111.551 78.8338 111.682 78.9258 111.789C79.0332 111.881 79.2632 111.981 79.6158 112.088C79.9838 112.195 80.5512 112.303 81.3178 112.41C82.8512 112.64 83.9782 113.123 84.6988 113.859C85.4348 114.58 85.8028 115.385 85.8028 116.274C85.8028 117.516 85.2432 118.49 84.1238 119.195C83.0045 119.885 81.4175 120.23 79.3628 120.23ZM87.9382 120C87.7696 120 87.6239 119.939 87.5012 119.816C87.3786 119.693 87.3172 119.548 87.3172 119.379V104.291C87.3172 104.122 87.3786 103.977 87.5012 103.854C87.6239 103.731 87.7696 103.67 87.9382 103.67H92.4232C92.5919 103.67 92.7376 103.731 92.8602 103.854C92.9829 103.977 93.0442 104.122 93.0442 104.291V109.236C93.4582 108.791 93.9642 108.446 94.5622 108.201C95.1756 107.94 95.8349 107.81 96.5402 107.81C97.3529 107.81 98.1042 108.002 98.7942 108.385C99.4842 108.753 100.044 109.336 100.473 110.133C100.903 110.915 101.117 111.881 101.117 113.031V119.379C101.117 119.548 101.056 119.693 100.933 119.816C100.811 119.939 100.665 120 100.496 120H95.9882C95.8196 120 95.6739 119.939 95.5512 119.816C95.4286 119.693 95.3672 119.548 95.3672 119.379V113.192C95.3672 112.778 95.2676 112.464 95.0682 112.249C94.8689 112.034 94.5852 111.927 94.2172 111.927C93.8492 111.927 93.5579 112.034 93.3432 112.249C93.1439 112.464 93.0442 112.778 93.0442 113.192V119.379C93.0442 119.548 92.9829 119.693 92.8602 119.816C92.7376 119.939 92.5919 120 92.4232 120H87.9382ZM109.41 120.23C105.194 120.23 102.97 118.52 102.74 115.101C102.725 114.871 102.717 114.511 102.717 114.02C102.717 113.529 102.725 113.169 102.74 112.939C102.848 111.268 103.484 109.995 104.649 109.121C105.815 108.247 107.402 107.81 109.41 107.81C111.419 107.81 113.006 108.247 114.171 109.121C115.337 109.995 115.973 111.268 116.08 112.939C116.111 113.399 116.126 113.759 116.126 114.02C116.126 114.281 116.111 114.641 116.08 115.101C115.85 118.52 113.627 120.23 109.41 120.23ZM109.41 116.55C109.824 116.55 110.093 116.443 110.215 116.228C110.338 115.998 110.415 115.584 110.445 114.986C110.461 114.833 110.468 114.511 110.468 114.02C110.468 113.529 110.461 113.207 110.445 113.054C110.399 112.471 110.315 112.065 110.192 111.835C110.07 111.605 109.809 111.49 109.41 111.49C109.012 111.49 108.751 111.605 108.628 111.835C108.506 112.065 108.421 112.471 108.375 113.054L108.352 114.02L108.375 114.986C108.406 115.584 108.483 115.998 108.605 116.228C108.728 116.443 108.996 116.55 109.41 116.55ZM118.44 124.37C118.272 124.37 118.126 124.309 118.003 124.186C117.881 124.063 117.819 123.918 117.819 123.749V108.661C117.819 108.492 117.881 108.347 118.003 108.224C118.126 108.101 118.272 108.04 118.44 108.04H122.35C122.519 108.04 122.665 108.101 122.787 108.224C122.91 108.347 122.971 108.492 122.971 108.661V109.351C123.339 108.876 123.807 108.5 124.374 108.224C124.957 107.948 125.624 107.81 126.375 107.81C127.801 107.81 128.951 108.239 129.825 109.098C130.699 109.957 131.175 111.298 131.251 113.123C131.267 113.353 131.274 113.652 131.274 114.02C131.274 114.403 131.267 114.71 131.251 114.94C131.19 116.673 130.707 117.991 129.802 118.896C128.913 119.785 127.771 120.23 126.375 120.23C124.98 120.23 123.96 119.77 123.316 118.85V123.749C123.316 123.918 123.255 124.063 123.132 124.186C123.01 124.309 122.864 124.37 122.695 124.37H118.44ZM124.466 116.113C124.865 116.113 125.141 116.006 125.294 115.791C125.463 115.576 125.57 115.239 125.616 114.779C125.647 114.472 125.662 114.219 125.662 114.02C125.662 113.821 125.647 113.568 125.616 113.261C125.57 112.801 125.463 112.464 125.294 112.249C125.141 112.034 124.865 111.927 124.466 111.927C124.068 111.927 123.784 112.042 123.615 112.272C123.447 112.487 123.347 112.816 123.316 113.261C123.301 113.491 123.293 113.775 123.293 114.112C123.293 114.449 123.301 114.733 123.316 114.963C123.347 115.346 123.447 115.638 123.615 115.837C123.799 116.021 124.083 116.113 124.466 116.113Z" fill="#F5EEEF"/>
</svg>
