<svg width="85" height="112" viewBox="0 0 85 112" fill="none" xmlns="http://www.w3.org/2000/svg">
<rect x="9" width="67" height="67" rx="17" fill="#F5EEEF"/>
<path fill-rule="evenodd" clip-rule="evenodd" d="M32.8555 26.762V20.6844L39.6084 19.4163L32.8555 26.762ZM49.3116 27.0254L43 20.1597L36.6883 27.0254H49.3116ZM53.1445 26.762L46.3916 19.4163L53.1445 20.6844V26.762ZM29.8555 30.0254V18.1954L43 15.7269L56.1445 18.1954V30.0254H29.8555ZM42.9999 55L64.0311 30.0255H56.1445H29.8555H21.9688L42.9999 55ZM36.4633 42.5803L28.4171 33.0255H31.4344L36.4633 42.5803ZM49.5367 42.5802L54.5655 33.0255H57.5828L49.5367 42.5802ZM51.1754 33.0255L43 48.5587L34.8246 33.0255H51.1754ZM21.9688 30.0254H29.8554V18.1954L21.9688 30.0254ZM56.1445 18.1954V30.0254H64.0312L56.1445 18.1954Z" fill="#22AF8B"/>
<path d="M6.92044 109.23C5.54044 109.23 4.39044 109.054 3.47044 108.701C2.55044 108.333 1.8681 107.888 1.42344 107.367C0.994104 106.846 0.779438 106.355 0.779438 105.895C0.779438 105.742 0.833104 105.611 0.940438 105.504C1.04777 105.381 1.1781 105.32 1.33144 105.32H5.33344H5.42544C5.57877 105.335 5.72444 105.389 5.86244 105.481C6.00044 105.558 6.09244 105.611 6.13844 105.642C6.32244 105.765 6.48344 105.857 6.62144 105.918C6.75944 105.979 6.91277 106.01 7.08144 106.01C7.21944 106.01 7.3421 105.979 7.44944 105.918C7.55677 105.857 7.61044 105.772 7.61044 105.665C7.61044 105.512 7.56444 105.381 7.47244 105.274C7.38044 105.167 7.1581 105.059 6.80544 104.952C6.4681 104.845 5.9391 104.722 5.21844 104.584C3.99177 104.354 2.97977 103.94 2.18244 103.342C1.40044 102.729 1.00944 101.862 1.00944 100.743C1.00944 100.068 1.23177 99.432 1.67644 98.834C2.13644 98.2207 2.80344 97.73 3.67744 97.362C4.56677 96.994 5.6171 96.81 6.82844 96.81C8.02444 96.81 9.08244 96.994 10.0024 97.362C10.9224 97.7147 11.6278 98.1517 12.1184 98.673C12.6091 99.1943 12.8544 99.685 12.8544 100.145C12.8544 100.298 12.8008 100.436 12.6934 100.559C12.5861 100.666 12.4711 100.72 12.3484 100.72H8.71444H8.48444C8.34644 100.72 8.20077 100.689 8.04744 100.628C7.90944 100.551 7.7791 100.467 7.65644 100.375C7.33444 100.145 7.05077 100.03 6.80544 100.03C6.68277 100.03 6.57544 100.068 6.48344 100.145C6.39144 100.206 6.34544 100.291 6.34544 100.398C6.34544 100.551 6.39144 100.682 6.48344 100.789C6.59077 100.881 6.82077 100.981 7.17344 101.088C7.54144 101.195 8.10877 101.303 8.87544 101.41C10.4088 101.64 11.5358 102.123 12.2564 102.859C12.9924 103.58 13.3604 104.385 13.3604 105.274C13.3604 106.516 12.8008 107.49 11.6814 108.195C10.5621 108.885 8.9751 109.23 6.92044 109.23ZM15.4958 109C15.3272 109 15.1815 108.939 15.0588 108.816C14.9362 108.693 14.8748 108.548 14.8748 108.379V93.291C14.8748 93.1223 14.9362 92.9767 15.0588 92.854C15.1815 92.7313 15.3272 92.67 15.4958 92.67H19.5208C19.6895 92.67 19.8352 92.7313 19.9578 92.854C20.0805 92.9767 20.1418 93.1223 20.1418 93.291V100.743L22.1658 97.431C22.3192 97.1703 22.5415 97.04 22.8328 97.04H27.4788C27.6322 97.04 27.7625 97.0937 27.8698 97.201C27.9772 97.3083 28.0308 97.4387 28.0308 97.592C28.0308 97.6993 27.9925 97.8143 27.9158 97.937L24.7648 102.422L28.4908 108.149C28.5522 108.241 28.5828 108.341 28.5828 108.448C28.5828 108.601 28.5292 108.732 28.4218 108.839C28.3145 108.946 28.1842 109 28.0308 109H23.2008C22.8942 109 22.6565 108.87 22.4878 108.609L20.1418 104.699V108.379C20.1418 108.548 20.0805 108.693 19.9578 108.816C19.8352 108.939 19.6895 109 19.5208 109H15.4958ZM35.3245 109.23C33.2392 109.23 31.6215 108.724 30.4715 107.712C29.3215 106.685 28.7465 105.128 28.7465 103.043V102.882C28.7772 100.935 29.3752 99.4397 30.5405 98.397C31.7212 97.339 33.3082 96.81 35.3015 96.81C36.7429 96.81 37.9542 97.0937 38.9355 97.661C39.9322 98.213 40.6682 98.9643 41.1435 99.915C41.6189 100.85 41.8565 101.901 41.8565 103.066V103.756C41.8565 103.925 41.7952 104.07 41.6725 104.193C41.5499 104.316 41.4042 104.377 41.2355 104.377H34.3815V104.492C34.3815 104.967 34.4505 105.32 34.5885 105.55C34.7265 105.78 34.9565 105.895 35.2785 105.895C35.4012 105.895 35.5009 105.872 35.5775 105.826C35.6542 105.765 35.7769 105.65 35.9455 105.481C36.0835 105.343 36.1985 105.259 36.2905 105.228C36.3825 105.182 36.5205 105.159 36.7045 105.159H41.0515C41.1895 105.159 41.3045 105.205 41.3965 105.297C41.5039 105.374 41.5575 105.481 41.5575 105.619C41.5575 106.048 41.3199 106.554 40.8445 107.137C40.3692 107.704 39.6562 108.195 38.7055 108.609C37.7702 109.023 36.6432 109.23 35.3245 109.23ZM36.2215 101.502V101.479C36.2215 100.513 35.9149 100.03 35.3015 100.03C34.6882 100.03 34.3815 100.513 34.3815 101.479V101.502H36.2215ZM50.8736 109C49.0643 109 47.6536 108.624 46.6416 107.873C45.6296 107.106 45.1236 105.834 45.1236 104.055V101.065H43.3066C43.138 101.065 42.9923 101.004 42.8696 100.881C42.747 100.758 42.6856 100.613 42.6856 100.444V97.661C42.6856 97.4923 42.747 97.3467 42.8696 97.224C42.9923 97.1013 43.138 97.04 43.3066 97.04H45.1236V93.291C45.1236 93.1223 45.185 92.9767 45.3076 92.854C45.4303 92.7313 45.576 92.67 45.7446 92.67H49.7696C49.9383 92.67 50.084 92.7313 50.2066 92.854C50.3293 92.9767 50.3906 93.1223 50.3906 93.291V97.04H53.2886C53.4573 97.04 53.603 97.1013 53.7256 97.224C53.8483 97.3467 53.9096 97.4923 53.9096 97.661V100.444C53.9096 100.613 53.8483 100.758 53.7256 100.881C53.603 101.004 53.4573 101.065 53.2886 101.065H50.3906V103.595C50.3906 104.362 50.7203 104.745 51.3796 104.745H53.4726C53.6413 104.745 53.787 104.806 53.9096 104.929C54.0323 105.052 54.0936 105.197 54.0936 105.366V108.379C54.0936 108.548 54.0323 108.693 53.9096 108.816C53.787 108.939 53.6413 109 53.4726 109H50.8736ZM61.8038 109.23C60.6232 109.23 59.5498 109.031 58.5838 108.632C57.6332 108.218 56.8742 107.612 56.3068 106.815C55.7395 106.018 55.4252 105.067 55.3638 103.963L55.3408 103.043L55.3638 102.1C55.4098 100.996 55.7165 100.045 56.2838 99.248C56.8665 98.4507 57.6332 97.845 58.5838 97.431C59.5498 97.017 60.6232 96.81 61.8038 96.81C63.3065 96.81 64.5638 97.086 65.5758 97.638C66.5878 98.1747 67.3315 98.8033 67.8068 99.524C68.2975 100.245 68.5428 100.843 68.5428 101.318C68.5428 101.471 68.4815 101.609 68.3588 101.732C68.2362 101.839 68.0905 101.893 67.9218 101.893H63.4368C63.1455 101.893 62.9232 101.74 62.7698 101.433C62.6472 101.188 62.5245 101.011 62.4018 100.904C62.2945 100.797 62.1335 100.743 61.9188 100.743C61.5815 100.743 61.3438 100.866 61.2058 101.111C61.0832 101.356 61.0142 101.724 60.9988 102.215L60.9758 103.112L60.9988 103.848C61.0295 104.369 61.1062 104.745 61.2288 104.975C61.3515 105.19 61.5815 105.297 61.9188 105.297C62.1642 105.297 62.3405 105.251 62.4478 105.159C62.5552 105.052 62.6625 104.868 62.7698 104.607C62.8925 104.3 63.1148 104.147 63.4368 104.147H67.9218C68.0905 104.147 68.2362 104.208 68.3588 104.331C68.4815 104.438 68.5428 104.569 68.5428 104.722C68.5428 105.151 68.3128 105.726 67.8528 106.447C67.3928 107.168 66.6568 107.812 65.6448 108.379C64.6482 108.946 63.3678 109.23 61.8038 109.23ZM70.6374 109C70.4688 109 70.3231 108.939 70.2004 108.816C70.0778 108.693 70.0164 108.548 70.0164 108.379V93.291C70.0164 93.1223 70.0778 92.9767 70.2004 92.854C70.3231 92.7313 70.4688 92.67 70.6374 92.67H75.1224C75.2911 92.67 75.4368 92.7313 75.5594 92.854C75.6821 92.9767 75.7434 93.1223 75.7434 93.291V98.236C76.1574 97.7913 76.6634 97.4463 77.2614 97.201C77.8748 96.9403 78.5341 96.81 79.2394 96.81C80.0521 96.81 80.8034 97.0017 81.4934 97.385C82.1834 97.753 82.7431 98.3357 83.1724 99.133C83.6018 99.915 83.8164 100.881 83.8164 102.031V108.379C83.8164 108.548 83.7551 108.693 83.6324 108.816C83.5098 108.939 83.3641 109 83.1954 109H78.6874C78.5188 109 78.3731 108.939 78.2504 108.816C78.1278 108.693 78.0664 108.548 78.0664 108.379V102.192C78.0664 101.778 77.9668 101.464 77.7674 101.249C77.5681 101.034 77.2844 100.927 76.9164 100.927C76.5484 100.927 76.2571 101.034 76.0424 101.249C75.8431 101.464 75.7434 101.778 75.7434 102.192V108.379C75.7434 108.548 75.6821 108.693 75.5594 108.816C75.4368 108.939 75.2911 109 75.1224 109H70.6374Z" fill="#F5EEEF"/>
</svg>
