<svg width="51" height="51" viewBox="0 0 51 51" fill="none" xmlns="http://www.w3.org/2000/svg">
<path fill-rule="evenodd" clip-rule="evenodd" d="M17 0C7.61115 0 0 7.61121 0 17V34C0 43.3888 7.61115 51 17 51H34C43.3889 51 51 43.3888 51 34V17C51 7.61121 43.3889 0 34 0H17ZM16.3409 14.3895C24.4414 7.68347 36.6644 11.1968 39.7605 21.0447C46.6285 25.5594 43.4816 36.2928 35.2038 36.6011C27.1711 43.4065 14.9513 40.0433 11.7061 30.2546C10.4308 29.5399 9.32968 28.4922 8.55103 27.1434C5.20294 21.3444 9.72 14.1791 16.3409 14.3895ZM25.539 35.9343C28.5936 35.808 32.467 33.5642 34.2634 31.2355C35.8883 29.1412 36.2948 26.6942 35.0153 24.4652C32.7718 20.5792 28.5908 21.8976 25.112 22.9946C23.8025 23.4076 22.5924 23.7892 21.6226 23.85C19.0132 24.0247 18.9635 21.3167 21.85 19.65C24.0781 18.3636 25.2368 19.042 26.2575 19.6394C27.0608 20.1096 27.7786 20.5298 28.8648 19.9027C30.9154 18.7188 30.0946 15.7124 26.418 15.213C22.4418 14.6825 16.1394 18.5492 15.5786 22.6154C15.2546 24.9447 16.7261 27.0494 18.4692 27.7177C20.7917 28.6097 23.359 27.7756 25.6424 27.0338C27.3062 26.4932 28.8193 26.0016 29.9769 26.2627C31.0143 26.498 31.8843 27.7418 31.1211 29.2924C30.352 30.8687 28.1574 32.0717 26.8804 32.1876C25.5712 32.2975 24.7053 31.7112 23.9308 31.1868C23.0532 30.5927 22.2929 30.0778 21.1377 30.7448C18.2523 32.4106 21.1647 36.082 25.539 35.9343Z" fill="white"/>
</svg>
