<svg width="85" height="125" viewBox="0 0 85 125" fill="none" xmlns="http://www.w3.org/2000/svg">
<rect x="9" width="67" height="67" rx="17" fill="#F5EEEF"/>
<path fill-rule="evenodd" clip-rule="evenodd" d="M27.333 16.3562C22.4472 17.2704 19.2276 21.9722 20.1418 26.8579L24.0708 47.8559C24.985 52.7417 29.6868 55.9613 34.5726 55.0471L55.3518 51.159L55.5296 53.1671L60.9236 54.6746L66.3157 53.168L67.5189 39.5996H62.5715L58.8327 19.6184C57.9186 14.7326 53.2168 11.513 48.331 12.4272L27.333 16.3562ZM53.4539 37.4556C54.0414 35.5652 54.1893 33.5078 53.7999 31.4266C53.4105 29.3454 52.5287 27.4808 51.2974 25.9306L29.4496 30.0187C28.8621 31.9091 28.7142 33.9664 29.1036 36.0476C29.493 38.1288 30.3748 39.9935 31.606 41.5436L53.4539 37.4556ZM52.196 40.2471L33.7881 43.6914C36.5219 45.7946 40.1051 46.7696 43.7622 46.0853C47.4194 45.401 50.4077 43.1963 52.196 40.2471ZM39.1412 21.389C42.7984 20.7047 46.3816 21.6797 49.1154 23.7828L30.7075 27.2272C32.4958 24.2779 35.4841 22.0733 39.1412 21.389ZM60.9236 44.0364H64.9137L65.0607 42.3734H60.9236H56.7855L57.2321 47.4056H60.9236H62.9578L62.7656 49.5641L60.9236 50.0644L60.9217 50.0654L59.0816 49.5651L58.9582 48.1782H57.3L57.5364 50.8512L60.9208 51.7971L60.9236 51.7962L64.3098 50.8512L64.763 45.7408H60.9236H58.7424L58.5917 44.0364H60.9236Z" fill="#22AF8B"/>
<path d="M8.69198 98C6.88264 98 5.47198 97.6243 4.45998 96.873C3.44798 96.1063 2.94198 94.8337 2.94198 93.055V90.065H1.12498C0.95631 90.065 0.810643 90.0037 0.687977 89.881C0.56531 89.7583 0.503977 89.6127 0.503977 89.444V86.661C0.503977 86.4923 0.56531 86.3467 0.687977 86.224C0.810643 86.1013 0.95631 86.04 1.12498 86.04H2.94198V82.291C2.94198 82.1223 3.00331 81.9767 3.12598 81.854C3.24864 81.7313 3.39431 81.67 3.56298 81.67H7.58798C7.75664 81.67 7.90231 81.7313 8.02498 81.854C8.14764 81.9767 8.20898 82.1223 8.20898 82.291V86.04H11.107C11.2756 86.04 11.4213 86.1013 11.544 86.224C11.6666 86.3467 11.728 86.4923 11.728 86.661V89.444C11.728 89.6127 11.6666 89.7583 11.544 89.881C11.4213 90.0037 11.2756 90.065 11.107 90.065H8.20898V92.595C8.20898 93.3617 8.53864 93.745 9.19798 93.745H11.291C11.4596 93.745 11.6053 93.8063 11.728 93.929C11.8506 94.0517 11.912 94.1973 11.912 94.366V97.379C11.912 97.5477 11.8506 97.6933 11.728 97.816C11.6053 97.9387 11.4596 98 11.291 98H8.69198ZM17.8742 98.23C17.0615 98.23 16.3179 98.046 15.6432 97.678C14.9685 97.2947 14.4242 96.712 14.0102 95.93C13.6115 95.148 13.4122 94.1743 13.4122 93.009V86.661C13.4122 86.4923 13.4735 86.3467 13.5962 86.224C13.7189 86.1013 13.8645 86.04 14.0332 86.04H18.4262C18.5949 86.04 18.7405 86.1013 18.8632 86.224C18.9859 86.3467 19.0472 86.4923 19.0472 86.661V92.848C19.0472 93.262 19.1469 93.5763 19.3462 93.791C19.5455 94.0057 19.8292 94.113 20.1972 94.113C20.5652 94.113 20.8489 94.0057 21.0482 93.791C21.2475 93.5763 21.3472 93.262 21.3472 92.848V86.661C21.3472 86.4923 21.4085 86.3467 21.5312 86.224C21.6539 86.1013 21.7995 86.04 21.9682 86.04H26.3382C26.5069 86.04 26.6525 86.1013 26.7752 86.224C26.8979 86.3467 26.9592 86.4923 26.9592 86.661V97.379C26.9592 97.5477 26.8979 97.6933 26.7752 97.816C26.6525 97.9387 26.5069 98 26.3382 98H22.3132C22.1445 98 21.9989 97.9387 21.8762 97.816C21.7535 97.6933 21.6922 97.5477 21.6922 97.379V96.62C21.3242 97.1567 20.8105 97.563 20.1512 97.839C19.4919 98.0997 18.7329 98.23 17.8742 98.23ZM29.6462 98C29.4776 98 29.3319 97.9387 29.2092 97.816C29.0866 97.6933 29.0252 97.5477 29.0252 97.379V86.661C29.0252 86.4923 29.0866 86.3467 29.2092 86.224C29.3319 86.1013 29.4776 86.04 29.6462 86.04H33.4412C33.6099 86.04 33.7556 86.1013 33.8782 86.224C34.0009 86.3467 34.0622 86.4923 34.0622 86.661V87.42C34.3842 86.9907 34.8519 86.615 35.4652 86.293C36.0786 85.971 36.7686 85.81 37.5352 85.81C39.1759 85.81 40.2952 86.4387 40.8932 87.696C41.2612 87.1593 41.7672 86.7147 42.4112 86.362C43.0552 85.994 43.7222 85.81 44.4122 85.81C45.6542 85.81 46.6662 86.2393 47.4482 87.098C48.2456 87.9413 48.6442 89.2217 48.6442 90.939V97.379C48.6442 97.5477 48.5829 97.6933 48.4602 97.816C48.3376 97.9387 48.1919 98 48.0232 98H43.9752C43.8066 98 43.6609 97.9387 43.5382 97.816C43.4156 97.6933 43.3542 97.5477 43.3542 97.379V91.054C43.3542 90.686 43.2699 90.41 43.1012 90.226C42.9479 90.0267 42.7256 89.927 42.4342 89.927C42.1429 89.927 41.9206 90.0267 41.7672 90.226C41.6139 90.41 41.5372 90.686 41.5372 91.054V97.379C41.5372 97.5477 41.4759 97.6933 41.3532 97.816C41.2306 97.9387 41.0849 98 40.9162 98H36.8682C36.6996 98 36.5539 97.9387 36.4312 97.816C36.3086 97.6933 36.2472 97.5477 36.2472 97.379V91.054C36.2472 90.686 36.1629 90.41 35.9942 90.226C35.8409 90.0267 35.6186 89.927 35.3272 89.927C35.0359 89.927 34.8059 90.0267 34.6372 90.226C34.4839 90.4253 34.4072 90.7013 34.4072 91.054V97.379C34.4072 97.5477 34.3459 97.6933 34.2232 97.816C34.1006 97.9387 33.9549 98 33.7862 98H29.6462ZM54.9572 98.23C54.1445 98.23 53.4009 98.046 52.7262 97.678C52.0515 97.2947 51.5072 96.712 51.0932 95.93C50.6945 95.148 50.4952 94.1743 50.4952 93.009V86.661C50.4952 86.4923 50.5565 86.3467 50.6792 86.224C50.8019 86.1013 50.9475 86.04 51.1162 86.04H55.5092C55.6779 86.04 55.8235 86.1013 55.9462 86.224C56.0689 86.3467 56.1302 86.4923 56.1302 86.661V92.848C56.1302 93.262 56.2299 93.5763 56.4292 93.791C56.6285 94.0057 56.9122 94.113 57.2802 94.113C57.6482 94.113 57.9319 94.0057 58.1312 93.791C58.3305 93.5763 58.4302 93.262 58.4302 92.848V86.661C58.4302 86.4923 58.4915 86.3467 58.6142 86.224C58.7369 86.1013 58.8825 86.04 59.0512 86.04H63.4212C63.5899 86.04 63.7355 86.1013 63.8582 86.224C63.9809 86.3467 64.0422 86.4923 64.0422 86.661V97.379C64.0422 97.5477 63.9809 97.6933 63.8582 97.816C63.7355 97.9387 63.5899 98 63.4212 98H59.3962C59.2275 98 59.0819 97.9387 58.9592 97.816C58.8365 97.6933 58.7752 97.5477 58.7752 97.379V96.62C58.4072 97.1567 57.8935 97.563 57.2342 97.839C56.5749 98.0997 55.8159 98.23 54.9572 98.23ZM66.7292 98C66.5606 98 66.4149 97.9387 66.2922 97.816C66.1696 97.6933 66.1082 97.5477 66.1082 97.379V82.291C66.1082 82.1223 66.1696 81.9767 66.2922 81.854C66.4149 81.7313 66.5606 81.67 66.7292 81.67H70.8462C71.0149 81.67 71.1606 81.7313 71.2832 81.854C71.4059 81.9767 71.4672 82.1223 71.4672 82.291V97.379C71.4672 97.5477 71.4059 97.6933 71.2832 97.816C71.1606 97.9387 71.0149 98 70.8462 98H66.7292ZM80.9488 98C79.1395 98 77.7288 97.6243 76.7168 96.873C75.7048 96.1063 75.1988 94.8337 75.1988 93.055V90.065H73.3818C73.2131 90.065 73.0675 90.0037 72.9448 89.881C72.8221 89.7583 72.7608 89.6127 72.7608 89.444V86.661C72.7608 86.4923 72.8221 86.3467 72.9448 86.224C73.0675 86.1013 73.2131 86.04 73.3818 86.04H75.1988V82.291C75.1988 82.1223 75.2601 81.9767 75.3828 81.854C75.5055 81.7313 75.6511 81.67 75.8198 81.67H79.8448C80.0135 81.67 80.1591 81.7313 80.2818 81.854C80.4045 81.9767 80.4658 82.1223 80.4658 82.291V86.04H83.3638C83.5325 86.04 83.6781 86.1013 83.8008 86.224C83.9235 86.3467 83.9848 86.4923 83.9848 86.661V89.444C83.9848 89.6127 83.9235 89.7583 83.8008 89.881C83.6781 90.0037 83.5325 90.065 83.3638 90.065H80.4658V92.595C80.4658 93.3617 80.7955 93.745 81.4548 93.745H83.5478C83.7165 93.745 83.8621 93.8063 83.9848 93.929C84.1075 94.0517 84.1688 94.1973 84.1688 94.366V97.379C84.1688 97.5477 84.1075 97.6933 83.9848 97.816C83.8621 97.9387 83.7165 98 83.5478 98H80.9488ZM3.86108 120C3.69241 120 3.54674 119.939 3.42408 119.816C3.30141 119.693 3.24008 119.548 3.24008 119.379V104.291C3.24008 104.122 3.30141 103.977 3.42408 103.854C3.54674 103.731 3.69241 103.67 3.86108 103.67H8.34608C8.51475 103.67 8.66041 103.731 8.78308 103.854C8.90574 103.977 8.96708 104.122 8.96708 104.291V109.236C9.38108 108.791 9.88708 108.446 10.4851 108.201C11.0984 107.94 11.7577 107.81 12.4631 107.81C13.2757 107.81 14.0271 108.002 14.7171 108.385C15.4071 108.753 15.9667 109.336 16.3961 110.133C16.8254 110.915 17.0401 111.881 17.0401 113.031V119.379C17.0401 119.548 16.9787 119.693 16.8561 119.816C16.7334 119.939 16.5877 120 16.4191 120H11.9111C11.7424 120 11.5967 119.939 11.4741 119.816C11.3514 119.693 11.2901 119.548 11.2901 119.379V113.192C11.2901 112.778 11.1904 112.464 10.9911 112.249C10.7917 112.034 10.5081 111.927 10.1401 111.927C9.77208 111.927 9.48075 112.034 9.26608 112.249C9.06674 112.464 8.96708 112.778 8.96708 113.192V119.379C8.96708 119.548 8.90574 119.693 8.78308 119.816C8.66041 119.939 8.51475 120 8.34608 120H3.86108ZM20.8601 124.37C20.7221 124.37 20.5994 124.324 20.4921 124.232C20.4001 124.14 20.3541 124.025 20.3541 123.887C20.3541 123.872 20.3464 123.841 20.3311 123.795C20.3311 123.749 20.3464 123.703 20.3771 123.657L22.2171 119.241L17.7781 108.753C17.7627 108.707 17.7551 108.653 17.7551 108.592C17.7857 108.439 17.8547 108.308 17.9621 108.201C18.0694 108.094 18.1921 108.04 18.3301 108.04H22.2171C22.5697 108.04 22.8151 108.224 22.9531 108.592L24.8391 113.836L26.7941 108.592C26.9474 108.224 27.2081 108.04 27.5761 108.04H31.4171C31.5551 108.04 31.6777 108.094 31.7851 108.201C31.8924 108.293 31.9461 108.4 31.9461 108.523C31.9461 108.615 31.9384 108.692 31.9231 108.753L25.4371 123.818C25.2837 124.186 25.0154 124.37 24.6321 124.37H20.8601ZM33.7341 124.37C33.5655 124.37 33.4198 124.309 33.2971 124.186C33.1745 124.063 33.1131 123.918 33.1131 123.749V108.661C33.1131 108.492 33.1745 108.347 33.2971 108.224C33.4198 108.101 33.5655 108.04 33.7341 108.04H37.6441C37.8128 108.04 37.9585 108.101 38.0811 108.224C38.2038 108.347 38.2651 108.492 38.2651 108.661V109.351C38.6331 108.876 39.1008 108.5 39.6681 108.224C40.2508 107.948 40.9178 107.81 41.6691 107.81C43.0951 107.81 44.2451 108.239 45.1191 109.098C45.9931 109.957 46.4685 111.298 46.5451 113.123C46.5605 113.353 46.5681 113.652 46.5681 114.02C46.5681 114.403 46.5605 114.71 46.5451 114.94C46.4838 116.673 46.0008 117.991 45.0961 118.896C44.2068 119.785 43.0645 120.23 41.6691 120.23C40.2738 120.23 39.2541 119.77 38.6101 118.85V123.749C38.6101 123.918 38.5488 124.063 38.4261 124.186C38.3035 124.309 38.1578 124.37 37.9891 124.37H33.7341ZM39.7601 116.113C40.1588 116.113 40.4348 116.006 40.5881 115.791C40.7568 115.576 40.8641 115.239 40.9101 114.779C40.9408 114.472 40.9561 114.219 40.9561 114.02C40.9561 113.821 40.9408 113.568 40.9101 113.261C40.8641 112.801 40.7568 112.464 40.5881 112.249C40.4348 112.034 40.1588 111.927 39.7601 111.927C39.3615 111.927 39.0778 112.042 38.9091 112.272C38.7405 112.487 38.6408 112.816 38.6101 113.261C38.5948 113.491 38.5871 113.775 38.5871 114.112C38.5871 114.449 38.5948 114.733 38.6101 114.963C38.6408 115.346 38.7405 115.638 38.9091 115.837C39.0931 116.021 39.3768 116.113 39.7601 116.113ZM54.5062 120.23C52.4208 120.23 50.8032 119.724 49.6532 118.712C48.5032 117.685 47.9282 116.128 47.9282 114.043V113.882C47.9588 111.935 48.5568 110.44 49.7222 109.397C50.9028 108.339 52.4898 107.81 54.4832 107.81C55.9245 107.81 57.1358 108.094 58.1172 108.661C59.1138 109.213 59.8498 109.964 60.3252 110.915C60.8005 111.85 61.0382 112.901 61.0382 114.066V114.756C61.0382 114.925 60.9768 115.07 60.8542 115.193C60.7315 115.316 60.5858 115.377 60.4172 115.377H53.5632V115.492C53.5632 115.967 53.6322 116.32 53.7702 116.55C53.9082 116.78 54.1382 116.895 54.4602 116.895C54.5828 116.895 54.6825 116.872 54.7592 116.826C54.8358 116.765 54.9585 116.65 55.1272 116.481C55.2652 116.343 55.3802 116.259 55.4722 116.228C55.5642 116.182 55.7022 116.159 55.8862 116.159H60.2332C60.3712 116.159 60.4862 116.205 60.5782 116.297C60.6855 116.374 60.7392 116.481 60.7392 116.619C60.7392 117.048 60.5015 117.554 60.0262 118.137C59.5508 118.704 58.8378 119.195 57.8872 119.609C56.9518 120.023 55.8248 120.23 54.5062 120.23ZM55.4032 112.502V112.479C55.4032 111.513 55.0965 111.03 54.4832 111.03C53.8698 111.03 53.5632 111.513 53.5632 112.479V112.502H55.4032ZM74.5988 120C74.4302 120 74.2845 119.939 74.1618 119.816C74.0392 119.693 73.9778 119.548 73.9778 119.379V117.424H67.1008C66.9322 117.424 66.7865 117.363 66.6638 117.24C66.5412 117.117 66.4798 116.972 66.4798 116.803V113.514C66.4798 113.253 66.5642 113.016 66.7328 112.801L73.2418 104.291C73.4565 104.03 73.7402 103.9 74.0928 103.9H78.8768C79.0455 103.9 79.1912 103.961 79.3138 104.084C79.4365 104.207 79.4978 104.352 79.4978 104.521V112.755H81.4988C81.6828 112.755 81.8362 112.816 81.9588 112.939C82.0815 113.062 82.1428 113.207 82.1428 113.376V116.803C82.1428 116.972 82.0815 117.117 81.9588 117.24C81.8362 117.363 81.6905 117.424 81.5218 117.424H79.4978V119.379C79.4978 119.548 79.4365 119.693 79.3138 119.816C79.1912 119.939 79.0455 120 78.8768 120H74.5988ZM71.7238 113.008H74.1388V109.696L71.7238 113.008Z" fill="#F5EEEF"/>
</svg>
